<mxfile host="app.diagrams.net" modified="2023-05-17T07:23:24.075Z" agent="5.0 (Windows NT 10.0; Win64; x64) AppleWebKit/537.36 (KHTML, like Gecko) Chrome/113.0.0.0 Safari/537.36 Edg/113.0.1774.42" etag="hpQJu2rkCqsI5r_fygxm" version="21.0.2" type="github" pages="4">
  <diagram name="组织架构示意图" id="97916047-d0de-89f5-080d-49f4d83e522f">
    <mxGraphModel dx="657" dy="375" grid="1" gridSize="10" guides="1" tooltips="1" connect="1" arrows="1" fold="1" page="1" pageScale="1.5" pageWidth="1169" pageHeight="827" background="none" math="0" shadow="0">
      <root>
        <mxCell id="0" />
        <mxCell id="1" parent="0" />
        <mxCell id="2" value="小溪流" style="rounded=1;fillColor=#10739E;strokeColor=none;shadow=1;gradientColor=none;fontStyle=1;fontColor=#FFFFFF;fontSize=14;" parent="1" vertex="1">
          <mxGeometry x="960" y="170" width="200" height="60" as="geometry" />
        </mxCell>
        <mxCell id="29" value="" style="edgeStyle=elbowEdgeStyle;elbow=vertical;strokeWidth=4;endArrow=block;endFill=1;fontStyle=1;strokeColor=#23445D;entryX=0.5;entryY=0;entryDx=0;entryDy=0;" parent="1" source="2" target="vN53YwSDx1gjcHLbSxnD-55" edge="1">
          <mxGeometry x="22" y="165.5" width="100" height="100" as="geometry">
            <mxPoint x="22" y="265.5" as="sourcePoint" />
            <mxPoint x="772" y="345.5" as="targetPoint" />
          </mxGeometry>
        </mxCell>
        <mxCell id="vN53YwSDx1gjcHLbSxnD-79" style="shape=connector;rounded=1;orthogonalLoop=1;jettySize=auto;html=1;exitX=0.5;exitY=1;exitDx=0;exitDy=0;entryX=1;entryY=0.5;entryDx=0;entryDy=0;labelBackgroundColor=default;strokeColor=#23445D;strokeWidth=4;fontFamily=Helvetica;fontSize=11;fontColor=default;endArrow=block;endFill=1;edgeStyle=elbowEdgeStyle;elbow=vertical;" parent="1" source="vN53YwSDx1gjcHLbSxnD-55" target="vN53YwSDx1gjcHLbSxnD-71" edge="1">
          <mxGeometry relative="1" as="geometry">
            <Array as="points">
              <mxPoint x="520" y="460" />
            </Array>
          </mxGeometry>
        </mxCell>
        <mxCell id="vN53YwSDx1gjcHLbSxnD-80" style="edgeStyle=elbowEdgeStyle;shape=connector;rounded=1;orthogonalLoop=1;jettySize=auto;elbow=vertical;html=1;exitX=0.5;exitY=1;exitDx=0;exitDy=0;entryX=1;entryY=0.5;entryDx=0;entryDy=0;labelBackgroundColor=default;strokeColor=#23445D;strokeWidth=4;fontFamily=Helvetica;fontSize=11;fontColor=default;endArrow=block;endFill=1;" parent="1" source="vN53YwSDx1gjcHLbSxnD-55" target="vN53YwSDx1gjcHLbSxnD-72" edge="1">
          <mxGeometry relative="1" as="geometry">
            <Array as="points">
              <mxPoint x="520" y="540" />
            </Array>
          </mxGeometry>
        </mxCell>
        <mxCell id="vN53YwSDx1gjcHLbSxnD-55" value="总经办" style="rounded=1;fillColor=#10739E;strokeColor=none;shadow=1;gradientColor=none;fontStyle=1;fontColor=#FFFFFF;fontSize=14;" parent="1" vertex="1">
          <mxGeometry x="510" y="370" width="120" height="60" as="geometry" />
        </mxCell>
        <mxCell id="vN53YwSDx1gjcHLbSxnD-87" style="edgeStyle=elbowEdgeStyle;shape=connector;rounded=1;orthogonalLoop=1;jettySize=auto;elbow=vertical;html=1;exitX=0.5;exitY=1;exitDx=0;exitDy=0;labelBackgroundColor=default;strokeColor=#23445D;strokeWidth=4;fontFamily=Helvetica;fontSize=11;fontColor=default;endArrow=block;endFill=1;" parent="1" source="vN53YwSDx1gjcHLbSxnD-56" target="vN53YwSDx1gjcHLbSxnD-78" edge="1">
          <mxGeometry relative="1" as="geometry">
            <Array as="points">
              <mxPoint x="640" y="570" />
            </Array>
          </mxGeometry>
        </mxCell>
        <mxCell id="vN53YwSDx1gjcHLbSxnD-88" style="edgeStyle=elbowEdgeStyle;shape=connector;rounded=1;orthogonalLoop=1;jettySize=auto;elbow=vertical;html=1;exitX=0.5;exitY=1;exitDx=0;exitDy=0;labelBackgroundColor=default;strokeColor=#23445D;strokeWidth=4;fontFamily=Helvetica;fontSize=11;fontColor=default;endArrow=block;endFill=1;entryX=0.5;entryY=0;entryDx=0;entryDy=0;" parent="1" source="vN53YwSDx1gjcHLbSxnD-56" target="vN53YwSDx1gjcHLbSxnD-81" edge="1">
          <mxGeometry relative="1" as="geometry">
            <Array as="points">
              <mxPoint x="690" y="570" />
            </Array>
          </mxGeometry>
        </mxCell>
        <mxCell id="vN53YwSDx1gjcHLbSxnD-89" style="edgeStyle=elbowEdgeStyle;shape=connector;rounded=1;orthogonalLoop=1;jettySize=auto;elbow=vertical;html=1;exitX=0.5;exitY=1;exitDx=0;exitDy=0;entryX=0.5;entryY=0;entryDx=0;entryDy=0;labelBackgroundColor=default;strokeColor=#23445D;strokeWidth=4;fontFamily=Helvetica;fontSize=11;fontColor=default;endArrow=block;endFill=1;" parent="1" source="vN53YwSDx1gjcHLbSxnD-56" target="vN53YwSDx1gjcHLbSxnD-82" edge="1">
          <mxGeometry relative="1" as="geometry" />
        </mxCell>
        <mxCell id="vN53YwSDx1gjcHLbSxnD-90" style="edgeStyle=elbowEdgeStyle;shape=connector;rounded=1;orthogonalLoop=1;jettySize=auto;elbow=vertical;html=1;exitX=0.5;exitY=1;exitDx=0;exitDy=0;labelBackgroundColor=default;strokeColor=#23445D;strokeWidth=4;fontFamily=Helvetica;fontSize=11;fontColor=default;endArrow=block;endFill=1;" parent="1" source="vN53YwSDx1gjcHLbSxnD-56" target="vN53YwSDx1gjcHLbSxnD-83" edge="1">
          <mxGeometry relative="1" as="geometry" />
        </mxCell>
        <mxCell id="vN53YwSDx1gjcHLbSxnD-93" style="edgeStyle=elbowEdgeStyle;shape=connector;rounded=1;orthogonalLoop=1;jettySize=auto;elbow=vertical;html=1;exitX=0.5;exitY=1;exitDx=0;exitDy=0;entryX=0.5;entryY=0;entryDx=0;entryDy=0;labelBackgroundColor=default;strokeColor=#23445D;strokeWidth=4;fontFamily=Helvetica;fontSize=11;fontColor=default;endArrow=block;endFill=1;" parent="1" source="vN53YwSDx1gjcHLbSxnD-56" target="vN53YwSDx1gjcHLbSxnD-91" edge="1">
          <mxGeometry relative="1" as="geometry" />
        </mxCell>
        <mxCell id="vN53YwSDx1gjcHLbSxnD-94" style="edgeStyle=elbowEdgeStyle;shape=connector;rounded=1;orthogonalLoop=1;jettySize=auto;elbow=vertical;html=1;exitX=0.5;exitY=1;exitDx=0;exitDy=0;labelBackgroundColor=default;strokeColor=#23445D;strokeWidth=4;fontFamily=Helvetica;fontSize=11;fontColor=default;endArrow=block;endFill=1;" parent="1" source="vN53YwSDx1gjcHLbSxnD-56" target="vN53YwSDx1gjcHLbSxnD-92" edge="1">
          <mxGeometry relative="1" as="geometry" />
        </mxCell>
        <mxCell id="vN53YwSDx1gjcHLbSxnD-56" value="研发中心" style="rounded=1;fillColor=#10739E;strokeColor=none;shadow=1;gradientColor=none;fontStyle=1;fontColor=#FFFFFF;fontSize=14;" parent="1" vertex="1">
          <mxGeometry x="650" y="370" width="120" height="60" as="geometry" />
        </mxCell>
        <mxCell id="vN53YwSDx1gjcHLbSxnD-57" value="营销中心" style="rounded=1;fillColor=#10739E;strokeColor=none;shadow=1;gradientColor=none;fontStyle=1;fontColor=#FFFFFF;fontSize=14;" parent="1" vertex="1">
          <mxGeometry x="1070" y="370" width="120" height="60" as="geometry" />
        </mxCell>
        <mxCell id="vN53YwSDx1gjcHLbSxnD-58" value="服务中心" style="rounded=1;fillColor=#10739E;strokeColor=none;shadow=1;gradientColor=none;fontStyle=1;fontColor=#FFFFFF;fontSize=14;" parent="1" vertex="1">
          <mxGeometry x="790" y="370" width="120" height="60" as="geometry" />
        </mxCell>
        <mxCell id="vN53YwSDx1gjcHLbSxnD-59" value="产品中心" style="rounded=1;fillColor=#10739E;strokeColor=none;shadow=1;gradientColor=none;fontStyle=1;fontColor=#FFFFFF;fontSize=14;" parent="1" vertex="1">
          <mxGeometry x="930" y="370" width="120" height="60" as="geometry" />
        </mxCell>
        <mxCell id="vN53YwSDx1gjcHLbSxnD-60" value="外发部" style="rounded=1;fillColor=#10739E;strokeColor=none;shadow=1;gradientColor=none;fontStyle=1;fontColor=#FFFFFF;fontSize=14;" parent="1" vertex="1">
          <mxGeometry x="1210" y="370" width="120" height="60" as="geometry" />
        </mxCell>
        <mxCell id="vN53YwSDx1gjcHLbSxnD-61" value="财务部" style="rounded=1;fillColor=#10739E;strokeColor=none;shadow=1;gradientColor=none;fontStyle=1;fontColor=#FFFFFF;fontSize=14;" parent="1" vertex="1">
          <mxGeometry x="1350" y="370" width="120" height="60" as="geometry" />
        </mxCell>
        <mxCell id="vN53YwSDx1gjcHLbSxnD-62" value="人事行政" style="rounded=1;fillColor=#10739E;strokeColor=none;shadow=1;gradientColor=none;fontStyle=1;fontColor=#FFFFFF;fontSize=14;" parent="1" vertex="1">
          <mxGeometry x="1490" y="370" width="120" height="60" as="geometry" />
        </mxCell>
        <mxCell id="vN53YwSDx1gjcHLbSxnD-64" value="" style="edgeStyle=elbowEdgeStyle;elbow=vertical;strokeWidth=4;endArrow=block;endFill=1;fontStyle=1;strokeColor=#23445D;entryX=0.5;entryY=0;entryDx=0;entryDy=0;exitX=0.5;exitY=1;exitDx=0;exitDy=0;" parent="1" source="2" target="vN53YwSDx1gjcHLbSxnD-56" edge="1">
          <mxGeometry x="32" y="175.5" width="100" height="100" as="geometry">
            <mxPoint x="1140" y="240" as="sourcePoint" />
            <mxPoint x="580" y="380" as="targetPoint" />
          </mxGeometry>
        </mxCell>
        <mxCell id="vN53YwSDx1gjcHLbSxnD-65" value="" style="edgeStyle=elbowEdgeStyle;elbow=vertical;strokeWidth=4;endArrow=block;endFill=1;fontStyle=1;strokeColor=#23445D;entryX=0.5;entryY=0;entryDx=0;entryDy=0;exitX=0.5;exitY=1;exitDx=0;exitDy=0;" parent="1" source="2" target="vN53YwSDx1gjcHLbSxnD-58" edge="1">
          <mxGeometry x="42" y="185.5" width="100" height="100" as="geometry">
            <mxPoint x="1150" y="250" as="sourcePoint" />
            <mxPoint x="590" y="390" as="targetPoint" />
          </mxGeometry>
        </mxCell>
        <mxCell id="vN53YwSDx1gjcHLbSxnD-66" value="" style="edgeStyle=elbowEdgeStyle;elbow=vertical;strokeWidth=4;endArrow=block;endFill=1;fontStyle=1;strokeColor=#23445D;entryX=0.5;entryY=0;entryDx=0;entryDy=0;exitX=0.5;exitY=1;exitDx=0;exitDy=0;" parent="1" source="2" target="vN53YwSDx1gjcHLbSxnD-59" edge="1">
          <mxGeometry x="52" y="195.5" width="100" height="100" as="geometry">
            <mxPoint x="1160" y="260" as="sourcePoint" />
            <mxPoint x="600" y="400" as="targetPoint" />
          </mxGeometry>
        </mxCell>
        <mxCell id="vN53YwSDx1gjcHLbSxnD-67" value="" style="edgeStyle=elbowEdgeStyle;elbow=vertical;strokeWidth=4;endArrow=block;endFill=1;fontStyle=1;strokeColor=#23445D;entryX=0.5;entryY=0;entryDx=0;entryDy=0;exitX=0.5;exitY=1;exitDx=0;exitDy=0;" parent="1" source="2" target="vN53YwSDx1gjcHLbSxnD-57" edge="1">
          <mxGeometry x="62" y="205.5" width="100" height="100" as="geometry">
            <mxPoint x="1130" y="230" as="sourcePoint" />
            <mxPoint x="610" y="410" as="targetPoint" />
          </mxGeometry>
        </mxCell>
        <mxCell id="vN53YwSDx1gjcHLbSxnD-68" value="" style="edgeStyle=elbowEdgeStyle;elbow=vertical;strokeWidth=4;endArrow=block;endFill=1;fontStyle=1;strokeColor=#23445D;entryX=0.5;entryY=0;entryDx=0;entryDy=0;exitX=0.5;exitY=1;exitDx=0;exitDy=0;" parent="1" source="2" target="vN53YwSDx1gjcHLbSxnD-60" edge="1">
          <mxGeometry x="72" y="215.5" width="100" height="100" as="geometry">
            <mxPoint x="1130" y="230" as="sourcePoint" />
            <mxPoint x="620" y="420" as="targetPoint" />
          </mxGeometry>
        </mxCell>
        <mxCell id="vN53YwSDx1gjcHLbSxnD-69" value="" style="edgeStyle=elbowEdgeStyle;elbow=vertical;strokeWidth=4;endArrow=block;endFill=1;fontStyle=1;strokeColor=#23445D;entryX=0.5;entryY=0;entryDx=0;entryDy=0;exitX=0.5;exitY=1;exitDx=0;exitDy=0;" parent="1" source="2" target="vN53YwSDx1gjcHLbSxnD-61" edge="1">
          <mxGeometry x="82" y="225.5" width="100" height="100" as="geometry">
            <mxPoint x="1130" y="230" as="sourcePoint" />
            <mxPoint x="630" y="430" as="targetPoint" />
          </mxGeometry>
        </mxCell>
        <mxCell id="vN53YwSDx1gjcHLbSxnD-70" value="" style="edgeStyle=elbowEdgeStyle;elbow=vertical;strokeWidth=4;endArrow=block;endFill=1;fontStyle=1;strokeColor=#23445D;exitX=0.5;exitY=1;exitDx=0;exitDy=0;" parent="1" source="2" target="vN53YwSDx1gjcHLbSxnD-62" edge="1">
          <mxGeometry x="92" y="235.5" width="100" height="100" as="geometry">
            <mxPoint x="1130" y="230" as="sourcePoint" />
            <mxPoint x="640" y="440" as="targetPoint" />
          </mxGeometry>
        </mxCell>
        <mxCell id="vN53YwSDx1gjcHLbSxnD-71" value="Smart" style="rounded=1;fillColor=#10739E;strokeColor=none;shadow=1;gradientColor=none;fontStyle=1;fontColor=#FFFFFF;fontSize=14;" parent="1" vertex="1">
          <mxGeometry x="400" y="430" width="60" height="60" as="geometry" />
        </mxCell>
        <mxCell id="vN53YwSDx1gjcHLbSxnD-72" value="方驰" style="rounded=1;fillColor=#10739E;strokeColor=none;shadow=1;gradientColor=none;fontStyle=1;fontColor=#FFFFFF;fontSize=14;" parent="1" vertex="1">
          <mxGeometry x="400" y="510" width="60" height="60" as="geometry" />
        </mxCell>
        <mxCell id="vN53YwSDx1gjcHLbSxnD-78" value="业务开发" style="rounded=1;fillColor=#10739E;strokeColor=none;shadow=1;gradientColor=none;fontStyle=1;fontColor=#FFFFFF;fontSize=14;" parent="1" vertex="1">
          <mxGeometry x="530" y="630" width="60" height="60" as="geometry" />
        </mxCell>
        <mxCell id="vN53YwSDx1gjcHLbSxnD-81" value="CDN" style="rounded=1;fillColor=#10739E;strokeColor=none;shadow=1;gradientColor=none;fontStyle=1;fontColor=#FFFFFF;fontSize=14;" parent="1" vertex="1">
          <mxGeometry x="630" y="630" width="60" height="60" as="geometry" />
        </mxCell>
        <mxCell id="vN53YwSDx1gjcHLbSxnD-100" style="edgeStyle=elbowEdgeStyle;shape=connector;rounded=1;orthogonalLoop=1;jettySize=auto;elbow=vertical;html=1;exitX=0.5;exitY=1;exitDx=0;exitDy=0;entryX=0.5;entryY=0;entryDx=0;entryDy=0;labelBackgroundColor=default;strokeColor=#23445D;strokeWidth=4;fontFamily=Helvetica;fontSize=11;fontColor=default;endArrow=block;endFill=1;" parent="1" source="vN53YwSDx1gjcHLbSxnD-82" target="vN53YwSDx1gjcHLbSxnD-96" edge="1">
          <mxGeometry relative="1" as="geometry" />
        </mxCell>
        <mxCell id="vN53YwSDx1gjcHLbSxnD-101" style="edgeStyle=elbowEdgeStyle;shape=connector;rounded=1;orthogonalLoop=1;jettySize=auto;elbow=vertical;html=1;exitX=0.5;exitY=1;exitDx=0;exitDy=0;entryX=0.5;entryY=0;entryDx=0;entryDy=0;labelBackgroundColor=default;strokeColor=#23445D;strokeWidth=4;fontFamily=Helvetica;fontSize=11;fontColor=default;endArrow=block;endFill=1;" parent="1" source="vN53YwSDx1gjcHLbSxnD-82" target="vN53YwSDx1gjcHLbSxnD-95" edge="1">
          <mxGeometry relative="1" as="geometry" />
        </mxCell>
        <mxCell id="vN53YwSDx1gjcHLbSxnD-102" style="edgeStyle=elbowEdgeStyle;shape=connector;rounded=1;orthogonalLoop=1;jettySize=auto;elbow=vertical;html=1;exitX=0.5;exitY=1;exitDx=0;exitDy=0;labelBackgroundColor=default;strokeColor=#23445D;strokeWidth=4;fontFamily=Helvetica;fontSize=11;fontColor=default;endArrow=block;endFill=1;" parent="1" source="vN53YwSDx1gjcHLbSxnD-82" target="vN53YwSDx1gjcHLbSxnD-99" edge="1">
          <mxGeometry relative="1" as="geometry" />
        </mxCell>
        <mxCell id="vN53YwSDx1gjcHLbSxnD-103" style="edgeStyle=elbowEdgeStyle;shape=connector;rounded=1;orthogonalLoop=1;jettySize=auto;elbow=vertical;html=1;exitX=0.5;exitY=1;exitDx=0;exitDy=0;labelBackgroundColor=default;strokeColor=#23445D;strokeWidth=4;fontFamily=Helvetica;fontSize=11;fontColor=default;endArrow=block;endFill=1;" parent="1" source="vN53YwSDx1gjcHLbSxnD-82" target="vN53YwSDx1gjcHLbSxnD-97" edge="1">
          <mxGeometry relative="1" as="geometry" />
        </mxCell>
        <mxCell id="vN53YwSDx1gjcHLbSxnD-104" style="edgeStyle=elbowEdgeStyle;shape=connector;rounded=1;orthogonalLoop=1;jettySize=auto;elbow=vertical;html=1;exitX=0.5;exitY=1;exitDx=0;exitDy=0;entryX=0.5;entryY=0;entryDx=0;entryDy=0;labelBackgroundColor=default;strokeColor=#23445D;strokeWidth=4;fontFamily=Helvetica;fontSize=11;fontColor=default;endArrow=block;endFill=1;" parent="1" source="vN53YwSDx1gjcHLbSxnD-82" target="vN53YwSDx1gjcHLbSxnD-98" edge="1">
          <mxGeometry relative="1" as="geometry" />
        </mxCell>
        <mxCell id="vN53YwSDx1gjcHLbSxnD-82" value="创新" style="rounded=1;fillColor=#10739E;strokeColor=none;shadow=1;gradientColor=none;fontStyle=1;fontColor=#FFFFFF;fontSize=14;" parent="1" vertex="1">
          <mxGeometry x="730" y="630" width="60" height="60" as="geometry" />
        </mxCell>
        <mxCell id="vN53YwSDx1gjcHLbSxnD-83" value="测试" style="rounded=1;fillColor=#10739E;strokeColor=none;shadow=1;gradientColor=none;fontStyle=1;fontColor=#FFFFFF;fontSize=14;" parent="1" vertex="1">
          <mxGeometry x="830" y="630" width="60" height="60" as="geometry" />
        </mxCell>
        <mxCell id="vN53YwSDx1gjcHLbSxnD-91" value="秀华" style="rounded=1;fillColor=#10739E;strokeColor=none;shadow=1;gradientColor=none;fontStyle=1;fontColor=#FFFFFF;fontSize=14;" parent="1" vertex="1">
          <mxGeometry x="930" y="630" width="60" height="60" as="geometry" />
        </mxCell>
        <mxCell id="vN53YwSDx1gjcHLbSxnD-92" value="道远" style="rounded=1;fillColor=#10739E;strokeColor=none;shadow=1;gradientColor=none;fontStyle=1;fontColor=#FFFFFF;fontSize=14;" parent="1" vertex="1">
          <mxGeometry x="1030" y="630" width="60" height="60" as="geometry" />
        </mxCell>
        <mxCell id="vN53YwSDx1gjcHLbSxnD-95" value="谢有胜" style="rounded=1;fillColor=#10739E;strokeColor=none;shadow=1;gradientColor=none;fontStyle=1;fontColor=#FFFFFF;fontSize=14;" parent="1" vertex="1">
          <mxGeometry x="620" y="810" width="60" height="60" as="geometry" />
        </mxCell>
        <mxCell id="vN53YwSDx1gjcHLbSxnD-96" value="汤平" style="rounded=1;fillColor=#10739E;strokeColor=none;shadow=1;gradientColor=none;fontStyle=1;fontColor=#FFFFFF;fontSize=14;" parent="1" vertex="1">
          <mxGeometry x="730" y="810" width="60" height="60" as="geometry" />
        </mxCell>
        <mxCell id="vN53YwSDx1gjcHLbSxnD-97" value="何刚" style="rounded=1;fillColor=#10739E;strokeColor=none;shadow=1;gradientColor=none;fontStyle=1;fontColor=#FFFFFF;fontSize=14;" parent="1" vertex="1">
          <mxGeometry x="846.75" y="810" width="60" height="60" as="geometry" />
        </mxCell>
        <mxCell id="vN53YwSDx1gjcHLbSxnD-98" value="龚可" style="rounded=1;fillColor=#10739E;strokeColor=none;shadow=1;gradientColor=none;fontStyle=1;fontColor=#FFFFFF;fontSize=14;" parent="1" vertex="1">
          <mxGeometry x="960" y="810" width="60" height="60" as="geometry" />
        </mxCell>
        <mxCell id="vN53YwSDx1gjcHLbSxnD-99" value="吴睿阳" style="rounded=1;fillColor=#10739E;strokeColor=none;shadow=1;gradientColor=none;fontStyle=1;fontColor=#FFFFFF;fontSize=14;" parent="1" vertex="1">
          <mxGeometry x="510" y="810" width="60" height="60" as="geometry" />
        </mxCell>
        <mxCell id="DTg5QmGRYXGcyEWixk9y-29" value="新加" style="shape=umlActor;verticalLabelPosition=bottom;verticalAlign=top;html=1;outlineConnect=0;" vertex="1" parent="1">
          <mxGeometry x="1350" y="860" width="30" height="60" as="geometry" />
        </mxCell>
      </root>
    </mxGraphModel>
  </diagram>
  <diagram id="8dZgNBNODj0GWJuTlNd7" name="树化">
    <mxGraphModel dx="1379" dy="756" grid="1" gridSize="10" guides="1" tooltips="1" connect="1" arrows="1" fold="1" page="1" pageScale="1" pageWidth="827" pageHeight="1169" math="0" shadow="0">
      <root>
        <mxCell id="0" />
        <mxCell id="1" parent="0" />
        <mxCell id="IPNCWDt6PjQo4neQuNf--1" value="小溪流" style="rounded=1;fillColor=#10739E;strokeColor=none;shadow=1;gradientColor=none;fontStyle=1;fontColor=#FFFFFF;fontSize=14;" parent="1" vertex="1">
          <mxGeometry x="607" y="170" width="200" height="60" as="geometry" />
        </mxCell>
        <mxCell id="IPNCWDt6PjQo4neQuNf--2" value="" style="edgeStyle=elbowEdgeStyle;elbow=vertical;strokeWidth=4;endArrow=block;endFill=1;fontStyle=1;strokeColor=#23445D;entryX=0.5;entryY=0;entryDx=0;entryDy=0;" parent="1" source="IPNCWDt6PjQo4neQuNf--1" target="IPNCWDt6PjQo4neQuNf--5" edge="1">
          <mxGeometry x="-331" y="165.5" width="100" height="100" as="geometry">
            <mxPoint x="-331" y="265.5" as="sourcePoint" />
            <mxPoint x="419" y="345.5" as="targetPoint" />
          </mxGeometry>
        </mxCell>
        <mxCell id="IPNCWDt6PjQo4neQuNf--3" style="shape=connector;rounded=1;orthogonalLoop=1;jettySize=auto;html=1;exitX=0.5;exitY=1;exitDx=0;exitDy=0;entryX=1;entryY=0.5;entryDx=0;entryDy=0;labelBackgroundColor=default;strokeColor=#23445D;strokeWidth=4;fontFamily=Helvetica;fontSize=11;fontColor=default;endArrow=block;endFill=1;edgeStyle=elbowEdgeStyle;elbow=vertical;" parent="1" source="IPNCWDt6PjQo4neQuNf--5" target="IPNCWDt6PjQo4neQuNf--26" edge="1">
          <mxGeometry relative="1" as="geometry">
            <Array as="points">
              <mxPoint x="167" y="460" />
            </Array>
          </mxGeometry>
        </mxCell>
        <mxCell id="IPNCWDt6PjQo4neQuNf--4" style="edgeStyle=elbowEdgeStyle;shape=connector;rounded=1;orthogonalLoop=1;jettySize=auto;elbow=vertical;html=1;exitX=0.5;exitY=1;exitDx=0;exitDy=0;entryX=1;entryY=0.5;entryDx=0;entryDy=0;labelBackgroundColor=default;strokeColor=#23445D;strokeWidth=4;fontFamily=Helvetica;fontSize=11;fontColor=default;endArrow=block;endFill=1;" parent="1" source="IPNCWDt6PjQo4neQuNf--5" target="IPNCWDt6PjQo4neQuNf--27" edge="1">
          <mxGeometry relative="1" as="geometry">
            <Array as="points">
              <mxPoint x="167" y="540" />
            </Array>
          </mxGeometry>
        </mxCell>
        <mxCell id="IPNCWDt6PjQo4neQuNf--5" value="总经办" style="rounded=1;fillColor=#10739E;strokeColor=none;shadow=1;gradientColor=none;fontStyle=1;fontColor=#FFFFFF;fontSize=14;" parent="1" vertex="1">
          <mxGeometry x="157" y="370" width="120" height="60" as="geometry" />
        </mxCell>
        <mxCell id="IPNCWDt6PjQo4neQuNf--6" style="edgeStyle=elbowEdgeStyle;shape=connector;rounded=1;orthogonalLoop=1;jettySize=auto;elbow=vertical;html=1;exitX=0.5;exitY=1;exitDx=0;exitDy=0;labelBackgroundColor=default;strokeColor=#23445D;strokeWidth=4;fontFamily=Helvetica;fontSize=11;fontColor=default;endArrow=block;endFill=1;" parent="1" source="IPNCWDt6PjQo4neQuNf--12" target="IPNCWDt6PjQo4neQuNf--28" edge="1">
          <mxGeometry relative="1" as="geometry">
            <Array as="points">
              <mxPoint x="287" y="570" />
            </Array>
          </mxGeometry>
        </mxCell>
        <mxCell id="IPNCWDt6PjQo4neQuNf--7" style="edgeStyle=elbowEdgeStyle;shape=connector;rounded=1;orthogonalLoop=1;jettySize=auto;elbow=vertical;html=1;exitX=0.5;exitY=1;exitDx=0;exitDy=0;labelBackgroundColor=default;strokeColor=#23445D;strokeWidth=4;fontFamily=Helvetica;fontSize=11;fontColor=default;endArrow=block;endFill=1;entryX=0.5;entryY=0;entryDx=0;entryDy=0;" parent="1" source="IPNCWDt6PjQo4neQuNf--12" target="IPNCWDt6PjQo4neQuNf--29" edge="1">
          <mxGeometry relative="1" as="geometry">
            <Array as="points">
              <mxPoint x="337" y="570" />
            </Array>
          </mxGeometry>
        </mxCell>
        <mxCell id="IPNCWDt6PjQo4neQuNf--8" style="edgeStyle=elbowEdgeStyle;shape=connector;rounded=1;orthogonalLoop=1;jettySize=auto;elbow=vertical;html=1;exitX=0.5;exitY=1;exitDx=0;exitDy=0;entryX=0.5;entryY=0;entryDx=0;entryDy=0;labelBackgroundColor=default;strokeColor=#23445D;strokeWidth=4;fontFamily=Helvetica;fontSize=11;fontColor=default;endArrow=block;endFill=1;" parent="1" source="IPNCWDt6PjQo4neQuNf--12" target="IPNCWDt6PjQo4neQuNf--35" edge="1">
          <mxGeometry relative="1" as="geometry" />
        </mxCell>
        <mxCell id="IPNCWDt6PjQo4neQuNf--9" style="edgeStyle=elbowEdgeStyle;shape=connector;rounded=1;orthogonalLoop=1;jettySize=auto;elbow=vertical;html=1;exitX=0.5;exitY=1;exitDx=0;exitDy=0;labelBackgroundColor=default;strokeColor=#23445D;strokeWidth=4;fontFamily=Helvetica;fontSize=11;fontColor=default;endArrow=block;endFill=1;" parent="1" source="IPNCWDt6PjQo4neQuNf--12" target="IPNCWDt6PjQo4neQuNf--36" edge="1">
          <mxGeometry relative="1" as="geometry" />
        </mxCell>
        <mxCell id="IPNCWDt6PjQo4neQuNf--10" style="edgeStyle=elbowEdgeStyle;shape=connector;rounded=1;orthogonalLoop=1;jettySize=auto;elbow=vertical;html=1;exitX=0.5;exitY=1;exitDx=0;exitDy=0;entryX=0.5;entryY=0;entryDx=0;entryDy=0;labelBackgroundColor=default;strokeColor=#23445D;strokeWidth=4;fontFamily=Helvetica;fontSize=11;fontColor=default;endArrow=block;endFill=1;" parent="1" source="IPNCWDt6PjQo4neQuNf--12" target="IPNCWDt6PjQo4neQuNf--37" edge="1">
          <mxGeometry relative="1" as="geometry" />
        </mxCell>
        <mxCell id="IPNCWDt6PjQo4neQuNf--11" style="edgeStyle=elbowEdgeStyle;shape=connector;rounded=1;orthogonalLoop=1;jettySize=auto;elbow=vertical;html=1;exitX=0.5;exitY=1;exitDx=0;exitDy=0;labelBackgroundColor=default;strokeColor=#23445D;strokeWidth=4;fontFamily=Helvetica;fontSize=11;fontColor=default;endArrow=block;endFill=1;" parent="1" source="IPNCWDt6PjQo4neQuNf--12" target="IPNCWDt6PjQo4neQuNf--38" edge="1">
          <mxGeometry relative="1" as="geometry" />
        </mxCell>
        <mxCell id="IPNCWDt6PjQo4neQuNf--12" value="研发中心" style="rounded=1;fillColor=#10739E;strokeColor=none;shadow=1;gradientColor=none;fontStyle=1;fontColor=#FFFFFF;fontSize=14;" parent="1" vertex="1">
          <mxGeometry x="297" y="370" width="120" height="60" as="geometry" />
        </mxCell>
        <mxCell id="IPNCWDt6PjQo4neQuNf--13" value="营销中心" style="rounded=1;fillColor=#10739E;strokeColor=none;shadow=1;gradientColor=none;fontStyle=1;fontColor=#FFFFFF;fontSize=14;" parent="1" vertex="1">
          <mxGeometry x="717" y="370" width="120" height="60" as="geometry" />
        </mxCell>
        <mxCell id="IPNCWDt6PjQo4neQuNf--14" value="服务中心" style="rounded=1;fillColor=#10739E;strokeColor=none;shadow=1;gradientColor=none;fontStyle=1;fontColor=#FFFFFF;fontSize=14;" parent="1" vertex="1">
          <mxGeometry x="437" y="370" width="120" height="60" as="geometry" />
        </mxCell>
        <mxCell id="IPNCWDt6PjQo4neQuNf--15" value="产品中心" style="rounded=1;fillColor=#10739E;strokeColor=none;shadow=1;gradientColor=none;fontStyle=1;fontColor=#FFFFFF;fontSize=14;" parent="1" vertex="1">
          <mxGeometry x="577" y="370" width="120" height="60" as="geometry" />
        </mxCell>
        <mxCell id="IPNCWDt6PjQo4neQuNf--16" value="外发部" style="rounded=1;fillColor=#10739E;strokeColor=none;shadow=1;gradientColor=none;fontStyle=1;fontColor=#FFFFFF;fontSize=14;" parent="1" vertex="1">
          <mxGeometry x="857" y="370" width="120" height="60" as="geometry" />
        </mxCell>
        <mxCell id="IPNCWDt6PjQo4neQuNf--17" value="财务部" style="rounded=1;fillColor=#10739E;strokeColor=none;shadow=1;gradientColor=none;fontStyle=1;fontColor=#FFFFFF;fontSize=14;" parent="1" vertex="1">
          <mxGeometry x="997" y="370" width="120" height="60" as="geometry" />
        </mxCell>
        <mxCell id="IPNCWDt6PjQo4neQuNf--18" value="人事行政" style="rounded=1;fillColor=#10739E;strokeColor=none;shadow=1;gradientColor=none;fontStyle=1;fontColor=#FFFFFF;fontSize=14;" parent="1" vertex="1">
          <mxGeometry x="1139" y="370" width="120" height="60" as="geometry" />
        </mxCell>
        <mxCell id="IPNCWDt6PjQo4neQuNf--19" value="" style="edgeStyle=elbowEdgeStyle;elbow=vertical;strokeWidth=4;endArrow=block;endFill=1;fontStyle=1;strokeColor=#23445D;entryX=0.5;entryY=0;entryDx=0;entryDy=0;exitX=0.5;exitY=1;exitDx=0;exitDy=0;" parent="1" source="IPNCWDt6PjQo4neQuNf--1" target="IPNCWDt6PjQo4neQuNf--12" edge="1">
          <mxGeometry x="-321" y="175.5" width="100" height="100" as="geometry">
            <mxPoint x="787" y="240" as="sourcePoint" />
            <mxPoint x="227" y="380" as="targetPoint" />
          </mxGeometry>
        </mxCell>
        <mxCell id="IPNCWDt6PjQo4neQuNf--20" value="" style="edgeStyle=elbowEdgeStyle;elbow=vertical;strokeWidth=4;endArrow=block;endFill=1;fontStyle=1;strokeColor=#23445D;entryX=0.5;entryY=0;entryDx=0;entryDy=0;exitX=0.5;exitY=1;exitDx=0;exitDy=0;" parent="1" source="IPNCWDt6PjQo4neQuNf--1" target="IPNCWDt6PjQo4neQuNf--14" edge="1">
          <mxGeometry x="-311" y="185.5" width="100" height="100" as="geometry">
            <mxPoint x="797" y="250" as="sourcePoint" />
            <mxPoint x="237" y="390" as="targetPoint" />
          </mxGeometry>
        </mxCell>
        <mxCell id="IPNCWDt6PjQo4neQuNf--21" value="" style="edgeStyle=elbowEdgeStyle;elbow=vertical;strokeWidth=4;endArrow=block;endFill=1;fontStyle=1;strokeColor=#23445D;entryX=0.5;entryY=0;entryDx=0;entryDy=0;exitX=0.5;exitY=1;exitDx=0;exitDy=0;" parent="1" source="IPNCWDt6PjQo4neQuNf--1" target="IPNCWDt6PjQo4neQuNf--15" edge="1">
          <mxGeometry x="-301" y="195.5" width="100" height="100" as="geometry">
            <mxPoint x="807" y="260" as="sourcePoint" />
            <mxPoint x="247" y="400" as="targetPoint" />
          </mxGeometry>
        </mxCell>
        <mxCell id="IPNCWDt6PjQo4neQuNf--22" value="" style="edgeStyle=elbowEdgeStyle;elbow=vertical;strokeWidth=4;endArrow=block;endFill=1;fontStyle=1;strokeColor=#23445D;entryX=0.5;entryY=0;entryDx=0;entryDy=0;exitX=0.5;exitY=1;exitDx=0;exitDy=0;" parent="1" source="IPNCWDt6PjQo4neQuNf--1" target="IPNCWDt6PjQo4neQuNf--13" edge="1">
          <mxGeometry x="-291" y="205.5" width="100" height="100" as="geometry">
            <mxPoint x="777" y="230" as="sourcePoint" />
            <mxPoint x="257" y="410" as="targetPoint" />
          </mxGeometry>
        </mxCell>
        <mxCell id="IPNCWDt6PjQo4neQuNf--23" value="" style="edgeStyle=elbowEdgeStyle;elbow=vertical;strokeWidth=4;endArrow=block;endFill=1;fontStyle=1;strokeColor=#23445D;entryX=0.5;entryY=0;entryDx=0;entryDy=0;exitX=0.5;exitY=1;exitDx=0;exitDy=0;" parent="1" source="IPNCWDt6PjQo4neQuNf--1" target="IPNCWDt6PjQo4neQuNf--16" edge="1">
          <mxGeometry x="-281" y="215.5" width="100" height="100" as="geometry">
            <mxPoint x="777" y="230" as="sourcePoint" />
            <mxPoint x="267" y="420" as="targetPoint" />
          </mxGeometry>
        </mxCell>
        <mxCell id="IPNCWDt6PjQo4neQuNf--24" value="" style="edgeStyle=elbowEdgeStyle;elbow=vertical;strokeWidth=4;endArrow=block;endFill=1;fontStyle=1;strokeColor=#23445D;entryX=0.5;entryY=0;entryDx=0;entryDy=0;exitX=0.5;exitY=1;exitDx=0;exitDy=0;" parent="1" source="IPNCWDt6PjQo4neQuNf--1" target="IPNCWDt6PjQo4neQuNf--17" edge="1">
          <mxGeometry x="-271" y="225.5" width="100" height="100" as="geometry">
            <mxPoint x="777" y="230" as="sourcePoint" />
            <mxPoint x="277" y="430" as="targetPoint" />
          </mxGeometry>
        </mxCell>
        <mxCell id="IPNCWDt6PjQo4neQuNf--25" value="" style="edgeStyle=elbowEdgeStyle;elbow=vertical;strokeWidth=4;endArrow=block;endFill=1;fontStyle=1;strokeColor=#23445D;exitX=0.5;exitY=1;exitDx=0;exitDy=0;" parent="1" source="IPNCWDt6PjQo4neQuNf--1" target="IPNCWDt6PjQo4neQuNf--18" edge="1">
          <mxGeometry x="-185" y="235.5" width="100" height="100" as="geometry">
            <mxPoint x="853" y="230" as="sourcePoint" />
            <mxPoint x="363" y="440" as="targetPoint" />
          </mxGeometry>
        </mxCell>
        <mxCell id="IPNCWDt6PjQo4neQuNf--26" value="Smart" style="rounded=1;fillColor=#10739E;strokeColor=none;shadow=1;gradientColor=none;fontStyle=1;fontColor=#FFFFFF;fontSize=14;" parent="1" vertex="1">
          <mxGeometry x="47" y="430" width="60" height="60" as="geometry" />
        </mxCell>
        <mxCell id="IPNCWDt6PjQo4neQuNf--27" value="方驰" style="rounded=1;fillColor=#10739E;strokeColor=none;shadow=1;gradientColor=none;fontStyle=1;fontColor=#FFFFFF;fontSize=14;" parent="1" vertex="1">
          <mxGeometry x="47" y="510" width="60" height="60" as="geometry" />
        </mxCell>
        <mxCell id="IPNCWDt6PjQo4neQuNf--28" value="业务开发" style="rounded=1;fillColor=#10739E;strokeColor=none;shadow=1;gradientColor=none;fontStyle=1;fontColor=#FFFFFF;fontSize=14;" parent="1" vertex="1">
          <mxGeometry x="177" y="630" width="60" height="60" as="geometry" />
        </mxCell>
        <mxCell id="IPNCWDt6PjQo4neQuNf--29" value="CDN" style="rounded=1;fillColor=#10739E;strokeColor=none;shadow=1;gradientColor=none;fontStyle=1;fontColor=#FFFFFF;fontSize=14;" parent="1" vertex="1">
          <mxGeometry x="277" y="630" width="60" height="60" as="geometry" />
        </mxCell>
        <mxCell id="IPNCWDt6PjQo4neQuNf--30" style="edgeStyle=elbowEdgeStyle;shape=connector;rounded=1;orthogonalLoop=1;jettySize=auto;elbow=vertical;html=1;exitX=0.5;exitY=1;exitDx=0;exitDy=0;entryX=0.5;entryY=0;entryDx=0;entryDy=0;labelBackgroundColor=default;strokeColor=#23445D;strokeWidth=4;fontFamily=Helvetica;fontSize=11;fontColor=default;endArrow=block;endFill=1;" parent="1" source="IPNCWDt6PjQo4neQuNf--35" target="IPNCWDt6PjQo4neQuNf--40" edge="1">
          <mxGeometry relative="1" as="geometry" />
        </mxCell>
        <mxCell id="IPNCWDt6PjQo4neQuNf--31" style="edgeStyle=elbowEdgeStyle;shape=connector;rounded=1;orthogonalLoop=1;jettySize=auto;elbow=vertical;html=1;exitX=0.5;exitY=1;exitDx=0;exitDy=0;entryX=0.5;entryY=0;entryDx=0;entryDy=0;labelBackgroundColor=default;strokeColor=#23445D;strokeWidth=4;fontFamily=Helvetica;fontSize=11;fontColor=default;endArrow=block;endFill=1;" parent="1" source="IPNCWDt6PjQo4neQuNf--35" target="IPNCWDt6PjQo4neQuNf--39" edge="1">
          <mxGeometry relative="1" as="geometry" />
        </mxCell>
        <mxCell id="IPNCWDt6PjQo4neQuNf--32" style="edgeStyle=elbowEdgeStyle;shape=connector;rounded=1;orthogonalLoop=1;jettySize=auto;elbow=vertical;html=1;exitX=0.5;exitY=1;exitDx=0;exitDy=0;labelBackgroundColor=default;strokeColor=#23445D;strokeWidth=4;fontFamily=Helvetica;fontSize=11;fontColor=default;endArrow=block;endFill=1;" parent="1" source="IPNCWDt6PjQo4neQuNf--35" target="IPNCWDt6PjQo4neQuNf--43" edge="1">
          <mxGeometry relative="1" as="geometry" />
        </mxCell>
        <mxCell id="IPNCWDt6PjQo4neQuNf--33" style="edgeStyle=elbowEdgeStyle;shape=connector;rounded=1;orthogonalLoop=1;jettySize=auto;elbow=vertical;html=1;exitX=0.5;exitY=1;exitDx=0;exitDy=0;labelBackgroundColor=default;strokeColor=#23445D;strokeWidth=4;fontFamily=Helvetica;fontSize=11;fontColor=default;endArrow=block;endFill=1;" parent="1" source="IPNCWDt6PjQo4neQuNf--35" target="IPNCWDt6PjQo4neQuNf--41" edge="1">
          <mxGeometry relative="1" as="geometry" />
        </mxCell>
        <mxCell id="IPNCWDt6PjQo4neQuNf--34" style="edgeStyle=elbowEdgeStyle;shape=connector;rounded=1;orthogonalLoop=1;jettySize=auto;elbow=vertical;html=1;exitX=0.5;exitY=1;exitDx=0;exitDy=0;entryX=0.5;entryY=0;entryDx=0;entryDy=0;labelBackgroundColor=default;strokeColor=#23445D;strokeWidth=4;fontFamily=Helvetica;fontSize=11;fontColor=default;endArrow=block;endFill=1;" parent="1" source="IPNCWDt6PjQo4neQuNf--35" target="IPNCWDt6PjQo4neQuNf--42" edge="1">
          <mxGeometry relative="1" as="geometry" />
        </mxCell>
        <mxCell id="IPNCWDt6PjQo4neQuNf--35" value="创新" style="rounded=1;fillColor=#10739E;strokeColor=none;shadow=1;gradientColor=none;fontStyle=1;fontColor=#FFFFFF;fontSize=14;" parent="1" vertex="1">
          <mxGeometry x="377" y="630" width="60" height="60" as="geometry" />
        </mxCell>
        <mxCell id="IPNCWDt6PjQo4neQuNf--36" value="测试" style="rounded=1;fillColor=#10739E;strokeColor=none;shadow=1;gradientColor=none;fontStyle=1;fontColor=#FFFFFF;fontSize=14;" parent="1" vertex="1">
          <mxGeometry x="477" y="630" width="60" height="60" as="geometry" />
        </mxCell>
        <mxCell id="IPNCWDt6PjQo4neQuNf--37" value="秀华" style="rounded=1;fillColor=#10739E;strokeColor=none;shadow=1;gradientColor=none;fontStyle=1;fontColor=#FFFFFF;fontSize=14;" parent="1" vertex="1">
          <mxGeometry x="577" y="630" width="60" height="60" as="geometry" />
        </mxCell>
        <mxCell id="IPNCWDt6PjQo4neQuNf--38" value="道远" style="rounded=1;fillColor=#10739E;strokeColor=none;shadow=1;gradientColor=none;fontStyle=1;fontColor=#FFFFFF;fontSize=14;" parent="1" vertex="1">
          <mxGeometry x="677" y="630" width="60" height="60" as="geometry" />
        </mxCell>
        <mxCell id="IPNCWDt6PjQo4neQuNf--39" value="谢有胜" style="rounded=1;fillColor=#10739E;strokeColor=none;shadow=1;gradientColor=none;fontStyle=1;fontColor=#FFFFFF;fontSize=14;" parent="1" vertex="1">
          <mxGeometry x="267" y="810" width="60" height="60" as="geometry" />
        </mxCell>
        <mxCell id="IPNCWDt6PjQo4neQuNf--40" value="汤平" style="rounded=1;fillColor=#10739E;strokeColor=none;shadow=1;gradientColor=none;fontStyle=1;fontColor=#FFFFFF;fontSize=14;" parent="1" vertex="1">
          <mxGeometry x="377" y="810" width="60" height="60" as="geometry" />
        </mxCell>
        <mxCell id="IPNCWDt6PjQo4neQuNf--41" value="何刚" style="rounded=1;fillColor=#10739E;strokeColor=none;shadow=1;gradientColor=none;fontStyle=1;fontColor=#FFFFFF;fontSize=14;" parent="1" vertex="1">
          <mxGeometry x="493.75" y="810" width="60" height="60" as="geometry" />
        </mxCell>
        <mxCell id="IPNCWDt6PjQo4neQuNf--42" value="龚可" style="rounded=1;fillColor=#10739E;strokeColor=none;shadow=1;gradientColor=none;fontStyle=1;fontColor=#FFFFFF;fontSize=14;" parent="1" vertex="1">
          <mxGeometry x="607" y="810" width="60" height="60" as="geometry" />
        </mxCell>
        <mxCell id="IPNCWDt6PjQo4neQuNf--43" value="吴睿阳" style="rounded=1;fillColor=#10739E;strokeColor=none;shadow=1;gradientColor=none;fontStyle=1;fontColor=#FFFFFF;fontSize=14;" parent="1" vertex="1">
          <mxGeometry x="157" y="810" width="60" height="60" as="geometry" />
        </mxCell>
        <mxCell id="IPNCWDt6PjQo4neQuNf--46" value="1" style="ellipse;whiteSpace=wrap;html=1;aspect=fixed;fontFamily=Helvetica;fontSize=11;fontColor=default;" parent="1" vertex="1">
          <mxGeometry x="777" y="185" width="30" height="30" as="geometry" />
        </mxCell>
        <mxCell id="IPNCWDt6PjQo4neQuNf--47" value="2" style="ellipse;whiteSpace=wrap;html=1;aspect=fixed;fontFamily=Helvetica;fontSize=11;fontColor=default;" parent="1" vertex="1">
          <mxGeometry x="247" y="370" width="30" height="30" as="geometry" />
        </mxCell>
        <mxCell id="IPNCWDt6PjQo4neQuNf--49" value="3" style="ellipse;whiteSpace=wrap;html=1;aspect=fixed;fontFamily=Helvetica;fontSize=11;fontColor=default;" parent="1" vertex="1">
          <mxGeometry x="387" y="370" width="30" height="30" as="geometry" />
        </mxCell>
        <mxCell id="IPNCWDt6PjQo4neQuNf--50" value="4" style="ellipse;whiteSpace=wrap;html=1;aspect=fixed;fontFamily=Helvetica;fontSize=11;fontColor=default;" parent="1" vertex="1">
          <mxGeometry x="527" y="370" width="30" height="30" as="geometry" />
        </mxCell>
        <mxCell id="IPNCWDt6PjQo4neQuNf--51" value="5" style="ellipse;whiteSpace=wrap;html=1;aspect=fixed;fontFamily=Helvetica;fontSize=11;fontColor=default;" parent="1" vertex="1">
          <mxGeometry x="667" y="370" width="30" height="30" as="geometry" />
        </mxCell>
        <mxCell id="IPNCWDt6PjQo4neQuNf--52" value="6" style="ellipse;whiteSpace=wrap;html=1;aspect=fixed;fontFamily=Helvetica;fontSize=11;fontColor=default;" parent="1" vertex="1">
          <mxGeometry x="809" y="370" width="30" height="30" as="geometry" />
        </mxCell>
        <mxCell id="IPNCWDt6PjQo4neQuNf--53" value="7" style="ellipse;whiteSpace=wrap;html=1;aspect=fixed;fontFamily=Helvetica;fontSize=11;fontColor=default;" parent="1" vertex="1">
          <mxGeometry x="947" y="370" width="30" height="30" as="geometry" />
        </mxCell>
        <mxCell id="IPNCWDt6PjQo4neQuNf--54" value="8" style="ellipse;whiteSpace=wrap;html=1;aspect=fixed;fontFamily=Helvetica;fontSize=11;fontColor=default;" parent="1" vertex="1">
          <mxGeometry x="1087" y="370" width="30" height="30" as="geometry" />
        </mxCell>
        <mxCell id="IPNCWDt6PjQo4neQuNf--55" value="9" style="ellipse;whiteSpace=wrap;html=1;aspect=fixed;fontFamily=Helvetica;fontSize=11;fontColor=default;" parent="1" vertex="1">
          <mxGeometry x="1229" y="370" width="30" height="30" as="geometry" />
        </mxCell>
        <mxCell id="IPNCWDt6PjQo4neQuNf--56" value="10" style="ellipse;whiteSpace=wrap;html=1;aspect=fixed;fontFamily=Helvetica;fontSize=11;fontColor=default;" parent="1" vertex="1">
          <mxGeometry x="109" y="430" width="30" height="30" as="geometry" />
        </mxCell>
        <mxCell id="IPNCWDt6PjQo4neQuNf--57" value="11" style="ellipse;whiteSpace=wrap;html=1;aspect=fixed;fontFamily=Helvetica;fontSize=11;fontColor=default;" parent="1" vertex="1">
          <mxGeometry x="107" y="510" width="30" height="30" as="geometry" />
        </mxCell>
        <mxCell id="IPNCWDt6PjQo4neQuNf--58" value="12" style="ellipse;whiteSpace=wrap;html=1;aspect=fixed;fontFamily=Helvetica;fontSize=11;fontColor=default;" parent="1" vertex="1">
          <mxGeometry x="207" y="600" width="30" height="30" as="geometry" />
        </mxCell>
        <mxCell id="IPNCWDt6PjQo4neQuNf--59" value="13" style="ellipse;whiteSpace=wrap;html=1;aspect=fixed;fontFamily=Helvetica;fontSize=11;fontColor=default;" parent="1" vertex="1">
          <mxGeometry x="307" y="600" width="30" height="30" as="geometry" />
        </mxCell>
        <mxCell id="IPNCWDt6PjQo4neQuNf--60" value="14" style="ellipse;whiteSpace=wrap;html=1;aspect=fixed;fontFamily=Helvetica;fontSize=11;fontColor=default;" parent="1" vertex="1">
          <mxGeometry x="407" y="600" width="30" height="30" as="geometry" />
        </mxCell>
        <mxCell id="IPNCWDt6PjQo4neQuNf--61" value="15" style="ellipse;whiteSpace=wrap;html=1;aspect=fixed;fontFamily=Helvetica;fontSize=11;fontColor=default;" parent="1" vertex="1">
          <mxGeometry x="508.75" y="600" width="30" height="30" as="geometry" />
        </mxCell>
        <mxCell id="IPNCWDt6PjQo4neQuNf--62" value="16" style="ellipse;whiteSpace=wrap;html=1;aspect=fixed;fontFamily=Helvetica;fontSize=11;fontColor=default;" parent="1" vertex="1">
          <mxGeometry x="607" y="600" width="30" height="30" as="geometry" />
        </mxCell>
        <mxCell id="IPNCWDt6PjQo4neQuNf--63" value="17" style="ellipse;whiteSpace=wrap;html=1;aspect=fixed;fontFamily=Helvetica;fontSize=11;fontColor=default;" parent="1" vertex="1">
          <mxGeometry x="707" y="600" width="30" height="30" as="geometry" />
        </mxCell>
        <mxCell id="IPNCWDt6PjQo4neQuNf--64" value="18" style="ellipse;whiteSpace=wrap;html=1;aspect=fixed;fontFamily=Helvetica;fontSize=11;fontColor=default;" parent="1" vertex="1">
          <mxGeometry x="192" y="780" width="30" height="30" as="geometry" />
        </mxCell>
        <mxCell id="IPNCWDt6PjQo4neQuNf--65" value="19" style="ellipse;whiteSpace=wrap;html=1;aspect=fixed;fontFamily=Helvetica;fontSize=11;fontColor=default;" parent="1" vertex="1">
          <mxGeometry x="297" y="780" width="30" height="30" as="geometry" />
        </mxCell>
        <mxCell id="IPNCWDt6PjQo4neQuNf--66" value="20" style="ellipse;whiteSpace=wrap;html=1;aspect=fixed;fontFamily=Helvetica;fontSize=11;fontColor=default;" parent="1" vertex="1">
          <mxGeometry x="407" y="780" width="30" height="30" as="geometry" />
        </mxCell>
        <mxCell id="IPNCWDt6PjQo4neQuNf--67" value="21" style="ellipse;whiteSpace=wrap;html=1;aspect=fixed;fontFamily=Helvetica;fontSize=11;fontColor=default;" parent="1" vertex="1">
          <mxGeometry x="527" y="780" width="30" height="30" as="geometry" />
        </mxCell>
        <mxCell id="IPNCWDt6PjQo4neQuNf--68" value="22" style="ellipse;whiteSpace=wrap;html=1;aspect=fixed;fontFamily=Helvetica;fontSize=11;fontColor=default;" parent="1" vertex="1">
          <mxGeometry x="637" y="780" width="30" height="30" as="geometry" />
        </mxCell>
      </root>
    </mxGraphModel>
  </diagram>
  <diagram id="--49RK4oB5kbF9NB4WdF" name="树状图">
    <mxGraphModel dx="1379" dy="756" grid="1" gridSize="10" guides="1" tooltips="1" connect="1" arrows="1" fold="1" page="1" pageScale="1" pageWidth="827" pageHeight="1169" math="0" shadow="0">
      <root>
        <mxCell id="0" />
        <mxCell id="1" parent="0" />
        <mxCell id="GxRIP7DjlY5cd5xMBHFR-6" style="edgeStyle=elbowEdgeStyle;shape=connector;rounded=1;orthogonalLoop=1;jettySize=auto;elbow=vertical;html=1;exitX=0.5;exitY=1;exitDx=0;exitDy=0;entryX=0.5;entryY=0;entryDx=0;entryDy=0;labelBackgroundColor=default;strokeColor=#23445D;strokeWidth=2;fontFamily=Helvetica;fontSize=11;fontColor=default;endArrow=block;endFill=1;startSize=4;endSize=3;" parent="1" source="UV9DDmsu-Shkoi962ohh-1" target="UV9DDmsu-Shkoi962ohh-2" edge="1">
          <mxGeometry relative="1" as="geometry" />
        </mxCell>
        <mxCell id="GxRIP7DjlY5cd5xMBHFR-7" style="edgeStyle=elbowEdgeStyle;shape=connector;rounded=1;orthogonalLoop=1;jettySize=auto;elbow=vertical;html=1;exitX=0.5;exitY=1;exitDx=0;exitDy=0;entryX=0.5;entryY=0;entryDx=0;entryDy=0;labelBackgroundColor=default;strokeColor=#23445D;strokeWidth=2;fontFamily=Helvetica;fontSize=11;fontColor=default;endArrow=block;endFill=1;startSize=4;endSize=3;" parent="1" source="UV9DDmsu-Shkoi962ohh-1" target="UV9DDmsu-Shkoi962ohh-3" edge="1">
          <mxGeometry relative="1" as="geometry" />
        </mxCell>
        <mxCell id="GxRIP7DjlY5cd5xMBHFR-8" style="edgeStyle=elbowEdgeStyle;shape=connector;rounded=1;orthogonalLoop=1;jettySize=auto;elbow=vertical;html=1;exitX=0.5;exitY=1;exitDx=0;exitDy=0;entryX=0.5;entryY=0;entryDx=0;entryDy=0;labelBackgroundColor=default;strokeColor=#23445D;strokeWidth=2;fontFamily=Helvetica;fontSize=11;fontColor=default;endArrow=block;endFill=1;startSize=4;endSize=3;" parent="1" source="UV9DDmsu-Shkoi962ohh-1" target="UV9DDmsu-Shkoi962ohh-4" edge="1">
          <mxGeometry relative="1" as="geometry" />
        </mxCell>
        <mxCell id="GxRIP7DjlY5cd5xMBHFR-9" style="edgeStyle=elbowEdgeStyle;shape=connector;rounded=1;orthogonalLoop=1;jettySize=auto;elbow=vertical;html=1;exitX=0.5;exitY=1;exitDx=0;exitDy=0;entryX=0.5;entryY=0;entryDx=0;entryDy=0;labelBackgroundColor=default;strokeColor=#23445D;strokeWidth=2;fontFamily=Helvetica;fontSize=11;fontColor=default;endArrow=block;endFill=1;startSize=4;endSize=3;" parent="1" source="UV9DDmsu-Shkoi962ohh-1" target="UV9DDmsu-Shkoi962ohh-5" edge="1">
          <mxGeometry relative="1" as="geometry" />
        </mxCell>
        <mxCell id="GxRIP7DjlY5cd5xMBHFR-10" style="edgeStyle=elbowEdgeStyle;shape=connector;rounded=1;orthogonalLoop=1;jettySize=auto;elbow=vertical;html=1;exitX=0.5;exitY=1;exitDx=0;exitDy=0;entryX=0.5;entryY=0;entryDx=0;entryDy=0;labelBackgroundColor=default;strokeColor=#23445D;strokeWidth=2;fontFamily=Helvetica;fontSize=11;fontColor=default;endArrow=block;endFill=1;startSize=4;endSize=3;" parent="1" source="UV9DDmsu-Shkoi962ohh-1" target="UV9DDmsu-Shkoi962ohh-6" edge="1">
          <mxGeometry relative="1" as="geometry" />
        </mxCell>
        <mxCell id="GxRIP7DjlY5cd5xMBHFR-11" style="edgeStyle=elbowEdgeStyle;shape=connector;rounded=1;orthogonalLoop=1;jettySize=auto;elbow=vertical;html=1;exitX=0.5;exitY=1;exitDx=0;exitDy=0;entryX=0.5;entryY=0;entryDx=0;entryDy=0;labelBackgroundColor=default;strokeColor=#23445D;strokeWidth=2;fontFamily=Helvetica;fontSize=11;fontColor=default;endArrow=block;endFill=1;startSize=4;endSize=3;" parent="1" source="UV9DDmsu-Shkoi962ohh-1" target="GxRIP7DjlY5cd5xMBHFR-2" edge="1">
          <mxGeometry relative="1" as="geometry" />
        </mxCell>
        <mxCell id="GxRIP7DjlY5cd5xMBHFR-12" style="edgeStyle=elbowEdgeStyle;shape=connector;rounded=1;orthogonalLoop=1;jettySize=auto;elbow=vertical;html=1;exitX=0.5;exitY=1;exitDx=0;exitDy=0;entryX=0.5;entryY=0;entryDx=0;entryDy=0;labelBackgroundColor=default;strokeColor=#23445D;strokeWidth=2;fontFamily=Helvetica;fontSize=11;fontColor=default;endArrow=block;endFill=1;startSize=4;endSize=3;" parent="1" source="UV9DDmsu-Shkoi962ohh-1" target="GxRIP7DjlY5cd5xMBHFR-3" edge="1">
          <mxGeometry relative="1" as="geometry" />
        </mxCell>
        <mxCell id="GxRIP7DjlY5cd5xMBHFR-13" style="edgeStyle=elbowEdgeStyle;shape=connector;rounded=1;orthogonalLoop=1;jettySize=auto;elbow=vertical;html=1;exitX=0.5;exitY=1;exitDx=0;exitDy=0;entryX=0.5;entryY=0;entryDx=0;entryDy=0;labelBackgroundColor=default;strokeColor=#23445D;strokeWidth=2;fontFamily=Helvetica;fontSize=11;fontColor=default;endArrow=block;endFill=1;startSize=4;endSize=3;" parent="1" source="UV9DDmsu-Shkoi962ohh-1" target="GxRIP7DjlY5cd5xMBHFR-4" edge="1">
          <mxGeometry relative="1" as="geometry" />
        </mxCell>
        <mxCell id="UV9DDmsu-Shkoi962ohh-1" value="1" style="ellipse;whiteSpace=wrap;html=1;aspect=fixed;fontFamily=Helvetica;fontSize=11;fillColor=#dae8fc;strokeColor=#6c8ebf;" parent="1" vertex="1">
          <mxGeometry x="573" y="130" width="30" height="30" as="geometry" />
        </mxCell>
        <mxCell id="qVdMC9LCM3xJKsVJsWBS-7" style="edgeStyle=elbowEdgeStyle;shape=connector;rounded=1;orthogonalLoop=1;jettySize=auto;elbow=vertical;html=1;exitX=0.5;exitY=1;exitDx=0;exitDy=0;entryX=1;entryY=0.5;entryDx=0;entryDy=0;labelBackgroundColor=default;strokeColor=#23445D;strokeWidth=2;fontFamily=Helvetica;fontSize=11;fontColor=default;endArrow=block;endFill=1;startSize=4;endSize=3;" parent="1" source="UV9DDmsu-Shkoi962ohh-2" target="VeU2b2cEyrCWJ9xEr8nr-1" edge="1">
          <mxGeometry relative="1" as="geometry">
            <Array as="points">
              <mxPoint x="233" y="325" />
            </Array>
          </mxGeometry>
        </mxCell>
        <mxCell id="qVdMC9LCM3xJKsVJsWBS-8" style="edgeStyle=elbowEdgeStyle;shape=connector;rounded=1;orthogonalLoop=1;jettySize=auto;elbow=vertical;html=1;exitX=0.5;exitY=1;exitDx=0;exitDy=0;entryX=1;entryY=0.5;entryDx=0;entryDy=0;labelBackgroundColor=default;strokeColor=#23445D;strokeWidth=2;fontFamily=Helvetica;fontSize=11;fontColor=default;endArrow=block;endFill=1;startSize=4;endSize=3;" parent="1" source="UV9DDmsu-Shkoi962ohh-2" target="VeU2b2cEyrCWJ9xEr8nr-2" edge="1">
          <mxGeometry relative="1" as="geometry">
            <Array as="points">
              <mxPoint x="233" y="395" />
            </Array>
          </mxGeometry>
        </mxCell>
        <mxCell id="UV9DDmsu-Shkoi962ohh-2" value="2" style="ellipse;whiteSpace=wrap;html=1;aspect=fixed;fontFamily=Helvetica;fontSize=11;fillColor=#dae8fc;strokeColor=#6c8ebf;" parent="1" vertex="1">
          <mxGeometry x="263" y="260" width="30" height="30" as="geometry" />
        </mxCell>
        <mxCell id="qVdMC9LCM3xJKsVJsWBS-9" style="edgeStyle=elbowEdgeStyle;shape=connector;rounded=1;orthogonalLoop=1;jettySize=auto;elbow=vertical;html=1;exitX=0.5;exitY=1;exitDx=0;exitDy=0;entryX=0.5;entryY=0;entryDx=0;entryDy=0;labelBackgroundColor=default;strokeColor=#23445D;strokeWidth=2;fontFamily=Helvetica;fontSize=11;fontColor=default;endArrow=block;endFill=1;startSize=4;endSize=3;jumpStyle=arc;shadow=0;" parent="1" source="UV9DDmsu-Shkoi962ohh-3" target="Gkh-wFUf_fAlNWWDSlt7-1" edge="1">
          <mxGeometry relative="1" as="geometry">
            <Array as="points">
              <mxPoint x="303" y="430" />
            </Array>
          </mxGeometry>
        </mxCell>
        <mxCell id="qVdMC9LCM3xJKsVJsWBS-10" style="edgeStyle=elbowEdgeStyle;shape=connector;rounded=1;orthogonalLoop=1;jettySize=auto;elbow=vertical;html=1;exitX=0.5;exitY=1;exitDx=0;exitDy=0;entryX=0.5;entryY=0;entryDx=0;entryDy=0;labelBackgroundColor=default;strokeColor=#23445D;strokeWidth=2;fontFamily=Helvetica;fontSize=11;fontColor=default;endArrow=block;endFill=1;startSize=4;endSize=3;" parent="1" source="UV9DDmsu-Shkoi962ohh-3" target="Gkh-wFUf_fAlNWWDSlt7-2" edge="1">
          <mxGeometry relative="1" as="geometry">
            <Array as="points">
              <mxPoint x="353" y="430" />
            </Array>
          </mxGeometry>
        </mxCell>
        <mxCell id="qVdMC9LCM3xJKsVJsWBS-11" style="edgeStyle=elbowEdgeStyle;shape=connector;rounded=1;orthogonalLoop=1;jettySize=auto;elbow=vertical;html=1;exitX=0.5;exitY=1;exitDx=0;exitDy=0;entryX=0.5;entryY=0;entryDx=0;entryDy=0;labelBackgroundColor=default;strokeColor=#23445D;strokeWidth=2;fontFamily=Helvetica;fontSize=11;fontColor=default;endArrow=block;endFill=1;startSize=4;endSize=3;" parent="1" source="UV9DDmsu-Shkoi962ohh-3" target="Gkh-wFUf_fAlNWWDSlt7-3" edge="1">
          <mxGeometry relative="1" as="geometry" />
        </mxCell>
        <mxCell id="qVdMC9LCM3xJKsVJsWBS-12" style="edgeStyle=elbowEdgeStyle;shape=connector;rounded=1;orthogonalLoop=1;jettySize=auto;elbow=vertical;html=1;exitX=0.5;exitY=1;exitDx=0;exitDy=0;entryX=0.5;entryY=0;entryDx=0;entryDy=0;labelBackgroundColor=default;strokeColor=#23445D;strokeWidth=2;fontFamily=Helvetica;fontSize=11;fontColor=default;endArrow=block;endFill=1;startSize=4;endSize=3;" parent="1" source="UV9DDmsu-Shkoi962ohh-3" target="Gkh-wFUf_fAlNWWDSlt7-4" edge="1">
          <mxGeometry relative="1" as="geometry" />
        </mxCell>
        <mxCell id="qVdMC9LCM3xJKsVJsWBS-13" style="edgeStyle=elbowEdgeStyle;shape=connector;rounded=1;orthogonalLoop=1;jettySize=auto;elbow=vertical;html=1;exitX=0.5;exitY=1;exitDx=0;exitDy=0;entryX=0.5;entryY=0;entryDx=0;entryDy=0;labelBackgroundColor=default;strokeColor=#23445D;strokeWidth=2;fontFamily=Helvetica;fontSize=11;fontColor=default;endArrow=block;endFill=1;startSize=4;endSize=3;" parent="1" source="UV9DDmsu-Shkoi962ohh-3" target="Gkh-wFUf_fAlNWWDSlt7-5" edge="1">
          <mxGeometry relative="1" as="geometry" />
        </mxCell>
        <mxCell id="qVdMC9LCM3xJKsVJsWBS-14" style="edgeStyle=elbowEdgeStyle;shape=connector;rounded=1;orthogonalLoop=1;jettySize=auto;elbow=vertical;html=1;exitX=0.5;exitY=1;exitDx=0;exitDy=0;entryX=0.5;entryY=0;entryDx=0;entryDy=0;labelBackgroundColor=default;strokeColor=#23445D;strokeWidth=2;fontFamily=Helvetica;fontSize=11;fontColor=default;endArrow=block;endFill=1;startSize=4;endSize=3;" parent="1" source="UV9DDmsu-Shkoi962ohh-3" target="Gkh-wFUf_fAlNWWDSlt7-6" edge="1">
          <mxGeometry relative="1" as="geometry" />
        </mxCell>
        <mxCell id="UV9DDmsu-Shkoi962ohh-3" value="3" style="ellipse;whiteSpace=wrap;html=1;aspect=fixed;fontFamily=Helvetica;fontSize=11;fillColor=#dae8fc;strokeColor=#6c8ebf;" parent="1" vertex="1">
          <mxGeometry x="353" y="260" width="30" height="30" as="geometry" />
        </mxCell>
        <mxCell id="UV9DDmsu-Shkoi962ohh-4" value="4" style="ellipse;whiteSpace=wrap;html=1;aspect=fixed;fontFamily=Helvetica;fontSize=11;fontColor=default;" parent="1" vertex="1">
          <mxGeometry x="443" y="260" width="30" height="30" as="geometry" />
        </mxCell>
        <mxCell id="UV9DDmsu-Shkoi962ohh-5" value="5" style="ellipse;whiteSpace=wrap;html=1;aspect=fixed;fontFamily=Helvetica;fontSize=11;fontColor=default;" parent="1" vertex="1">
          <mxGeometry x="533" y="260" width="30" height="30" as="geometry" />
        </mxCell>
        <mxCell id="UV9DDmsu-Shkoi962ohh-6" value="6" style="ellipse;whiteSpace=wrap;html=1;aspect=fixed;fontFamily=Helvetica;fontSize=11;fontColor=default;" parent="1" vertex="1">
          <mxGeometry x="623" y="260" width="30" height="30" as="geometry" />
        </mxCell>
        <mxCell id="GxRIP7DjlY5cd5xMBHFR-2" value="7" style="ellipse;whiteSpace=wrap;html=1;aspect=fixed;fontFamily=Helvetica;fontSize=11;fontColor=default;" parent="1" vertex="1">
          <mxGeometry x="713" y="260" width="30" height="30" as="geometry" />
        </mxCell>
        <mxCell id="GxRIP7DjlY5cd5xMBHFR-3" value="8" style="ellipse;whiteSpace=wrap;html=1;aspect=fixed;fontFamily=Helvetica;fontSize=11;fontColor=default;" parent="1" vertex="1">
          <mxGeometry x="803" y="260" width="30" height="30" as="geometry" />
        </mxCell>
        <mxCell id="GxRIP7DjlY5cd5xMBHFR-4" value="9" style="ellipse;whiteSpace=wrap;html=1;aspect=fixed;fontFamily=Helvetica;fontSize=11;fontColor=default;" parent="1" vertex="1">
          <mxGeometry x="893" y="260" width="30" height="30" as="geometry" />
        </mxCell>
        <mxCell id="VeU2b2cEyrCWJ9xEr8nr-1" value="10" style="ellipse;whiteSpace=wrap;html=1;aspect=fixed;fontFamily=Helvetica;fontSize=11;fillColor=#d5e8d4;strokeColor=#82b366;" parent="1" vertex="1">
          <mxGeometry x="163" y="310" width="30" height="30" as="geometry" />
        </mxCell>
        <mxCell id="VeU2b2cEyrCWJ9xEr8nr-2" value="11" style="ellipse;whiteSpace=wrap;html=1;aspect=fixed;fontFamily=Helvetica;fontSize=11;fillColor=#d5e8d4;strokeColor=#82b366;" parent="1" vertex="1">
          <mxGeometry x="163" y="380" width="30" height="30" as="geometry" />
        </mxCell>
        <mxCell id="Gkh-wFUf_fAlNWWDSlt7-1" value="12" style="ellipse;whiteSpace=wrap;html=1;aspect=fixed;fontFamily=Helvetica;fontSize=11;fontColor=default;" parent="1" vertex="1">
          <mxGeometry x="218" y="480" width="30" height="30" as="geometry" />
        </mxCell>
        <mxCell id="Gkh-wFUf_fAlNWWDSlt7-2" value="13" style="ellipse;whiteSpace=wrap;html=1;aspect=fixed;fontFamily=Helvetica;fontSize=11;fontColor=default;" parent="1" vertex="1">
          <mxGeometry x="308" y="480" width="30" height="30" as="geometry" />
        </mxCell>
        <mxCell id="ZULQHruAafdZadYf3hif-1" style="edgeStyle=elbowEdgeStyle;shape=connector;rounded=1;orthogonalLoop=1;jettySize=auto;elbow=vertical;html=1;exitX=0.5;exitY=1;exitDx=0;exitDy=0;entryX=0.5;entryY=0;entryDx=0;entryDy=0;labelBackgroundColor=default;strokeColor=#23445D;strokeWidth=2;fontFamily=Helvetica;fontSize=11;fontColor=default;endArrow=block;endFill=1;startSize=4;endSize=3;" parent="1" source="Gkh-wFUf_fAlNWWDSlt7-3" target="qVdMC9LCM3xJKsVJsWBS-1" edge="1">
          <mxGeometry relative="1" as="geometry" />
        </mxCell>
        <mxCell id="ZULQHruAafdZadYf3hif-2" style="edgeStyle=elbowEdgeStyle;shape=connector;rounded=1;orthogonalLoop=1;jettySize=auto;elbow=vertical;html=1;exitX=0.5;exitY=1;exitDx=0;exitDy=0;entryX=0.5;entryY=0;entryDx=0;entryDy=0;labelBackgroundColor=default;strokeColor=#23445D;strokeWidth=2;fontFamily=Helvetica;fontSize=11;fontColor=default;endArrow=block;endFill=1;startSize=4;endSize=3;" parent="1" source="Gkh-wFUf_fAlNWWDSlt7-3" target="qVdMC9LCM3xJKsVJsWBS-2" edge="1">
          <mxGeometry relative="1" as="geometry" />
        </mxCell>
        <mxCell id="ZULQHruAafdZadYf3hif-3" style="edgeStyle=elbowEdgeStyle;shape=connector;rounded=1;orthogonalLoop=1;jettySize=auto;elbow=vertical;html=1;exitX=0.5;exitY=1;exitDx=0;exitDy=0;entryX=0.5;entryY=0;entryDx=0;entryDy=0;labelBackgroundColor=default;strokeColor=#23445D;strokeWidth=2;fontFamily=Helvetica;fontSize=11;fontColor=default;endArrow=block;endFill=1;startSize=4;endSize=3;" parent="1" source="Gkh-wFUf_fAlNWWDSlt7-3" target="qVdMC9LCM3xJKsVJsWBS-3" edge="1">
          <mxGeometry relative="1" as="geometry" />
        </mxCell>
        <mxCell id="ZULQHruAafdZadYf3hif-4" style="edgeStyle=elbowEdgeStyle;shape=connector;rounded=1;orthogonalLoop=1;jettySize=auto;elbow=vertical;html=1;exitX=0.5;exitY=1;exitDx=0;exitDy=0;entryX=0.5;entryY=0;entryDx=0;entryDy=0;labelBackgroundColor=default;strokeColor=#23445D;strokeWidth=2;fontFamily=Helvetica;fontSize=11;fontColor=default;endArrow=block;endFill=1;startSize=4;endSize=3;" parent="1" source="Gkh-wFUf_fAlNWWDSlt7-3" target="qVdMC9LCM3xJKsVJsWBS-4" edge="1">
          <mxGeometry relative="1" as="geometry" />
        </mxCell>
        <mxCell id="ZULQHruAafdZadYf3hif-5" style="edgeStyle=elbowEdgeStyle;shape=connector;rounded=1;orthogonalLoop=1;jettySize=auto;elbow=vertical;html=1;exitX=0.5;exitY=1;exitDx=0;exitDy=0;entryX=0.5;entryY=0;entryDx=0;entryDy=0;labelBackgroundColor=default;strokeColor=#23445D;strokeWidth=2;fontFamily=Helvetica;fontSize=11;fontColor=default;endArrow=block;endFill=1;startSize=4;endSize=3;" parent="1" source="Gkh-wFUf_fAlNWWDSlt7-3" target="qVdMC9LCM3xJKsVJsWBS-5" edge="1">
          <mxGeometry relative="1" as="geometry" />
        </mxCell>
        <mxCell id="Gkh-wFUf_fAlNWWDSlt7-3" value="14" style="ellipse;whiteSpace=wrap;html=1;aspect=fixed;fontFamily=Helvetica;fontSize=11;fillColor=#dae8fc;strokeColor=#6c8ebf;" parent="1" vertex="1">
          <mxGeometry x="398" y="480" width="30" height="30" as="geometry" />
        </mxCell>
        <mxCell id="Gkh-wFUf_fAlNWWDSlt7-4" value="15" style="ellipse;whiteSpace=wrap;html=1;aspect=fixed;fontFamily=Helvetica;fontSize=11;fontColor=default;" parent="1" vertex="1">
          <mxGeometry x="488" y="480" width="30" height="30" as="geometry" />
        </mxCell>
        <mxCell id="Gkh-wFUf_fAlNWWDSlt7-5" value="16" style="ellipse;whiteSpace=wrap;html=1;aspect=fixed;fontFamily=Helvetica;fontSize=11;fontColor=default;" parent="1" vertex="1">
          <mxGeometry x="578" y="480" width="30" height="30" as="geometry" />
        </mxCell>
        <mxCell id="Gkh-wFUf_fAlNWWDSlt7-6" value="17" style="ellipse;whiteSpace=wrap;html=1;aspect=fixed;fontFamily=Helvetica;fontSize=11;fontColor=default;" parent="1" vertex="1">
          <mxGeometry x="668" y="480" width="30" height="30" as="geometry" />
        </mxCell>
        <mxCell id="qVdMC9LCM3xJKsVJsWBS-1" value="18" style="ellipse;whiteSpace=wrap;html=1;aspect=fixed;fontFamily=Helvetica;fontSize=11;fillColor=#d5e8d4;strokeColor=#82b366;" parent="1" vertex="1">
          <mxGeometry x="223" y="600" width="30" height="30" as="geometry" />
        </mxCell>
        <mxCell id="qVdMC9LCM3xJKsVJsWBS-2" value="19" style="ellipse;whiteSpace=wrap;html=1;aspect=fixed;fontFamily=Helvetica;fontSize=11;fillColor=#d5e8d4;strokeColor=#82b366;" parent="1" vertex="1">
          <mxGeometry x="313" y="600" width="30" height="30" as="geometry" />
        </mxCell>
        <mxCell id="qVdMC9LCM3xJKsVJsWBS-3" value="20" style="ellipse;whiteSpace=wrap;html=1;aspect=fixed;fontFamily=Helvetica;fontSize=11;fillColor=#d5e8d4;strokeColor=#82b366;" parent="1" vertex="1">
          <mxGeometry x="403" y="600" width="30" height="30" as="geometry" />
        </mxCell>
        <mxCell id="qVdMC9LCM3xJKsVJsWBS-4" value="21" style="ellipse;whiteSpace=wrap;html=1;aspect=fixed;fontFamily=Helvetica;fontSize=11;fillColor=#d5e8d4;strokeColor=#82b366;" parent="1" vertex="1">
          <mxGeometry x="493" y="600" width="30" height="30" as="geometry" />
        </mxCell>
        <mxCell id="qVdMC9LCM3xJKsVJsWBS-5" value="22" style="ellipse;whiteSpace=wrap;html=1;aspect=fixed;fontFamily=Helvetica;fontSize=11;fillColor=#d5e8d4;strokeColor=#82b366;" parent="1" vertex="1">
          <mxGeometry x="583" y="600" width="30" height="30" as="geometry" />
        </mxCell>
        <mxCell id="cTyTQ_kBBdIQPrJwLoZ1-1" value="1" style="ellipse;whiteSpace=wrap;html=1;aspect=fixed;fontFamily=Helvetica;fontSize=11;fillColor=#dae8fc;strokeColor=#6c8ebf;" vertex="1" parent="1">
          <mxGeometry x="940" y="420" width="30" height="30" as="geometry" />
        </mxCell>
        <mxCell id="cTyTQ_kBBdIQPrJwLoZ1-27" style="edgeStyle=orthogonalEdgeStyle;rounded=0;orthogonalLoop=1;jettySize=auto;html=1;exitX=1;exitY=0.5;exitDx=0;exitDy=0;entryX=0;entryY=0.5;entryDx=0;entryDy=0;" edge="1" parent="1" source="cTyTQ_kBBdIQPrJwLoZ1-2" target="cTyTQ_kBBdIQPrJwLoZ1-3">
          <mxGeometry relative="1" as="geometry" />
        </mxCell>
        <mxCell id="cTyTQ_kBBdIQPrJwLoZ1-2" value="1" style="ellipse;whiteSpace=wrap;html=1;aspect=fixed;fontFamily=Helvetica;fontSize=11;fillColor=#dae8fc;strokeColor=#6c8ebf;" vertex="1" parent="1">
          <mxGeometry x="940" y="470" width="30" height="30" as="geometry" />
        </mxCell>
        <mxCell id="cTyTQ_kBBdIQPrJwLoZ1-3" value="2" style="ellipse;whiteSpace=wrap;html=1;aspect=fixed;fontFamily=Helvetica;fontSize=11;fillColor=#dae8fc;strokeColor=#6c8ebf;" vertex="1" parent="1">
          <mxGeometry x="990" y="470" width="30" height="30" as="geometry" />
        </mxCell>
        <mxCell id="cTyTQ_kBBdIQPrJwLoZ1-28" style="edgeStyle=orthogonalEdgeStyle;rounded=0;orthogonalLoop=1;jettySize=auto;html=1;exitX=1;exitY=0.5;exitDx=0;exitDy=0;entryX=0;entryY=0.5;entryDx=0;entryDy=0;" edge="1" parent="1" source="cTyTQ_kBBdIQPrJwLoZ1-4" target="cTyTQ_kBBdIQPrJwLoZ1-5">
          <mxGeometry relative="1" as="geometry" />
        </mxCell>
        <mxCell id="cTyTQ_kBBdIQPrJwLoZ1-4" value="1" style="ellipse;whiteSpace=wrap;html=1;aspect=fixed;fontFamily=Helvetica;fontSize=11;fillColor=#dae8fc;strokeColor=#6c8ebf;" vertex="1" parent="1">
          <mxGeometry x="940" y="520" width="30" height="30" as="geometry" />
        </mxCell>
        <mxCell id="cTyTQ_kBBdIQPrJwLoZ1-5" value="3" style="ellipse;whiteSpace=wrap;html=1;aspect=fixed;fontFamily=Helvetica;fontSize=11;fillColor=#dae8fc;strokeColor=#6c8ebf;" vertex="1" parent="1">
          <mxGeometry x="990" y="520" width="30" height="30" as="geometry" />
        </mxCell>
        <mxCell id="cTyTQ_kBBdIQPrJwLoZ1-29" style="edgeStyle=orthogonalEdgeStyle;rounded=0;orthogonalLoop=1;jettySize=auto;html=1;exitX=1;exitY=0.5;exitDx=0;exitDy=0;entryX=0;entryY=0.5;entryDx=0;entryDy=0;" edge="1" parent="1" source="cTyTQ_kBBdIQPrJwLoZ1-6" target="cTyTQ_kBBdIQPrJwLoZ1-7">
          <mxGeometry relative="1" as="geometry" />
        </mxCell>
        <mxCell id="cTyTQ_kBBdIQPrJwLoZ1-6" value="1" style="ellipse;whiteSpace=wrap;html=1;aspect=fixed;fontFamily=Helvetica;fontSize=11;fillColor=#dae8fc;strokeColor=#6c8ebf;" vertex="1" parent="1">
          <mxGeometry x="940" y="570" width="30" height="30" as="geometry" />
        </mxCell>
        <mxCell id="cTyTQ_kBBdIQPrJwLoZ1-30" style="edgeStyle=orthogonalEdgeStyle;rounded=0;orthogonalLoop=1;jettySize=auto;html=1;exitX=1;exitY=0.5;exitDx=0;exitDy=0;entryX=0;entryY=0.5;entryDx=0;entryDy=0;" edge="1" parent="1" source="cTyTQ_kBBdIQPrJwLoZ1-7" target="cTyTQ_kBBdIQPrJwLoZ1-8">
          <mxGeometry relative="1" as="geometry" />
        </mxCell>
        <mxCell id="cTyTQ_kBBdIQPrJwLoZ1-7" value="2" style="ellipse;whiteSpace=wrap;html=1;aspect=fixed;fontFamily=Helvetica;fontSize=11;fillColor=#dae8fc;strokeColor=#6c8ebf;" vertex="1" parent="1">
          <mxGeometry x="990" y="570" width="30" height="30" as="geometry" />
        </mxCell>
        <mxCell id="cTyTQ_kBBdIQPrJwLoZ1-8" value="10" style="ellipse;whiteSpace=wrap;html=1;aspect=fixed;fontFamily=Helvetica;fontSize=11;fillColor=#d5e8d4;strokeColor=#82b366;" vertex="1" parent="1">
          <mxGeometry x="1040" y="570" width="30" height="30" as="geometry" />
        </mxCell>
        <mxCell id="cTyTQ_kBBdIQPrJwLoZ1-31" style="edgeStyle=orthogonalEdgeStyle;rounded=0;orthogonalLoop=1;jettySize=auto;html=1;exitX=1;exitY=0.5;exitDx=0;exitDy=0;entryX=0;entryY=0.5;entryDx=0;entryDy=0;" edge="1" parent="1" source="cTyTQ_kBBdIQPrJwLoZ1-9" target="cTyTQ_kBBdIQPrJwLoZ1-10">
          <mxGeometry relative="1" as="geometry" />
        </mxCell>
        <mxCell id="cTyTQ_kBBdIQPrJwLoZ1-9" value="1" style="ellipse;whiteSpace=wrap;html=1;aspect=fixed;fontFamily=Helvetica;fontSize=11;fillColor=#dae8fc;strokeColor=#6c8ebf;" vertex="1" parent="1">
          <mxGeometry x="940" y="620" width="30" height="30" as="geometry" />
        </mxCell>
        <mxCell id="cTyTQ_kBBdIQPrJwLoZ1-32" style="edgeStyle=orthogonalEdgeStyle;rounded=0;orthogonalLoop=1;jettySize=auto;html=1;exitX=1;exitY=0.5;exitDx=0;exitDy=0;entryX=0;entryY=0.5;entryDx=0;entryDy=0;" edge="1" parent="1" source="cTyTQ_kBBdIQPrJwLoZ1-10" target="cTyTQ_kBBdIQPrJwLoZ1-11">
          <mxGeometry relative="1" as="geometry" />
        </mxCell>
        <mxCell id="cTyTQ_kBBdIQPrJwLoZ1-10" value="2" style="ellipse;whiteSpace=wrap;html=1;aspect=fixed;fontFamily=Helvetica;fontSize=11;fillColor=#dae8fc;strokeColor=#6c8ebf;" vertex="1" parent="1">
          <mxGeometry x="990" y="620" width="30" height="30" as="geometry" />
        </mxCell>
        <mxCell id="cTyTQ_kBBdIQPrJwLoZ1-11" value="11" style="ellipse;whiteSpace=wrap;html=1;aspect=fixed;fontFamily=Helvetica;fontSize=11;fillColor=#d5e8d4;strokeColor=#82b366;" vertex="1" parent="1">
          <mxGeometry x="1040" y="620" width="30" height="30" as="geometry" />
        </mxCell>
        <mxCell id="cTyTQ_kBBdIQPrJwLoZ1-34" style="edgeStyle=orthogonalEdgeStyle;rounded=0;orthogonalLoop=1;jettySize=auto;html=1;exitX=1;exitY=0.5;exitDx=0;exitDy=0;entryX=0;entryY=0.5;entryDx=0;entryDy=0;" edge="1" parent="1" source="cTyTQ_kBBdIQPrJwLoZ1-12" target="cTyTQ_kBBdIQPrJwLoZ1-13">
          <mxGeometry relative="1" as="geometry" />
        </mxCell>
        <mxCell id="cTyTQ_kBBdIQPrJwLoZ1-12" value="1" style="ellipse;whiteSpace=wrap;html=1;aspect=fixed;fontFamily=Helvetica;fontSize=11;fillColor=#dae8fc;strokeColor=#6c8ebf;" vertex="1" parent="1">
          <mxGeometry x="940" y="670" width="30" height="30" as="geometry" />
        </mxCell>
        <mxCell id="cTyTQ_kBBdIQPrJwLoZ1-33" style="edgeStyle=orthogonalEdgeStyle;rounded=0;orthogonalLoop=1;jettySize=auto;html=1;exitX=1;exitY=0.5;exitDx=0;exitDy=0;entryX=0;entryY=0.5;entryDx=0;entryDy=0;" edge="1" parent="1" source="cTyTQ_kBBdIQPrJwLoZ1-13" target="cTyTQ_kBBdIQPrJwLoZ1-14">
          <mxGeometry relative="1" as="geometry" />
        </mxCell>
        <mxCell id="cTyTQ_kBBdIQPrJwLoZ1-13" value="3" style="ellipse;whiteSpace=wrap;html=1;aspect=fixed;fontFamily=Helvetica;fontSize=11;fillColor=#dae8fc;strokeColor=#6c8ebf;" vertex="1" parent="1">
          <mxGeometry x="990" y="670" width="30" height="30" as="geometry" />
        </mxCell>
        <mxCell id="cTyTQ_kBBdIQPrJwLoZ1-14" value="14" style="ellipse;whiteSpace=wrap;html=1;aspect=fixed;fontFamily=Helvetica;fontSize=11;fillColor=#dae8fc;strokeColor=#6c8ebf;" vertex="1" parent="1">
          <mxGeometry x="1040" y="670" width="30" height="30" as="geometry" />
        </mxCell>
        <mxCell id="cTyTQ_kBBdIQPrJwLoZ1-35" style="edgeStyle=orthogonalEdgeStyle;rounded=0;orthogonalLoop=1;jettySize=auto;html=1;exitX=1;exitY=0.5;exitDx=0;exitDy=0;entryX=0;entryY=0.5;entryDx=0;entryDy=0;" edge="1" parent="1" source="cTyTQ_kBBdIQPrJwLoZ1-15" target="cTyTQ_kBBdIQPrJwLoZ1-16">
          <mxGeometry relative="1" as="geometry" />
        </mxCell>
        <mxCell id="cTyTQ_kBBdIQPrJwLoZ1-15" value="1" style="ellipse;whiteSpace=wrap;html=1;aspect=fixed;fontFamily=Helvetica;fontSize=11;fillColor=#dae8fc;strokeColor=#6c8ebf;" vertex="1" parent="1">
          <mxGeometry x="940" y="720" width="30" height="30" as="geometry" />
        </mxCell>
        <mxCell id="cTyTQ_kBBdIQPrJwLoZ1-36" style="edgeStyle=orthogonalEdgeStyle;rounded=0;orthogonalLoop=1;jettySize=auto;html=1;exitX=1;exitY=0.5;exitDx=0;exitDy=0;entryX=0;entryY=0.5;entryDx=0;entryDy=0;" edge="1" parent="1" source="cTyTQ_kBBdIQPrJwLoZ1-16" target="cTyTQ_kBBdIQPrJwLoZ1-17">
          <mxGeometry relative="1" as="geometry" />
        </mxCell>
        <mxCell id="cTyTQ_kBBdIQPrJwLoZ1-16" value="3" style="ellipse;whiteSpace=wrap;html=1;aspect=fixed;fontFamily=Helvetica;fontSize=11;fillColor=#dae8fc;strokeColor=#6c8ebf;" vertex="1" parent="1">
          <mxGeometry x="990" y="720" width="30" height="30" as="geometry" />
        </mxCell>
        <mxCell id="cTyTQ_kBBdIQPrJwLoZ1-37" style="edgeStyle=orthogonalEdgeStyle;rounded=0;orthogonalLoop=1;jettySize=auto;html=1;exitX=1;exitY=0.5;exitDx=0;exitDy=0;entryX=0;entryY=0.5;entryDx=0;entryDy=0;" edge="1" parent="1" source="cTyTQ_kBBdIQPrJwLoZ1-17" target="cTyTQ_kBBdIQPrJwLoZ1-18">
          <mxGeometry relative="1" as="geometry" />
        </mxCell>
        <mxCell id="cTyTQ_kBBdIQPrJwLoZ1-17" value="14" style="ellipse;whiteSpace=wrap;html=1;aspect=fixed;fontFamily=Helvetica;fontSize=11;fillColor=#dae8fc;strokeColor=#6c8ebf;" vertex="1" parent="1">
          <mxGeometry x="1040" y="720" width="30" height="30" as="geometry" />
        </mxCell>
        <mxCell id="cTyTQ_kBBdIQPrJwLoZ1-18" value="18" style="ellipse;whiteSpace=wrap;html=1;aspect=fixed;fontFamily=Helvetica;fontSize=11;fillColor=#d5e8d4;strokeColor=#82b366;" vertex="1" parent="1">
          <mxGeometry x="1090" y="720" width="30" height="30" as="geometry" />
        </mxCell>
        <mxCell id="cTyTQ_kBBdIQPrJwLoZ1-38" style="edgeStyle=orthogonalEdgeStyle;rounded=0;orthogonalLoop=1;jettySize=auto;html=1;exitX=1;exitY=0.5;exitDx=0;exitDy=0;entryX=0;entryY=0.5;entryDx=0;entryDy=0;" edge="1" parent="1" source="cTyTQ_kBBdIQPrJwLoZ1-19" target="cTyTQ_kBBdIQPrJwLoZ1-20">
          <mxGeometry relative="1" as="geometry" />
        </mxCell>
        <mxCell id="cTyTQ_kBBdIQPrJwLoZ1-19" value="1" style="ellipse;whiteSpace=wrap;html=1;aspect=fixed;fontFamily=Helvetica;fontSize=11;fillColor=#dae8fc;strokeColor=#6c8ebf;" vertex="1" parent="1">
          <mxGeometry x="940" y="770" width="30" height="30" as="geometry" />
        </mxCell>
        <mxCell id="cTyTQ_kBBdIQPrJwLoZ1-39" style="edgeStyle=orthogonalEdgeStyle;rounded=0;orthogonalLoop=1;jettySize=auto;html=1;exitX=1;exitY=0.5;exitDx=0;exitDy=0;entryX=0;entryY=0.5;entryDx=0;entryDy=0;" edge="1" parent="1" source="cTyTQ_kBBdIQPrJwLoZ1-20" target="cTyTQ_kBBdIQPrJwLoZ1-21">
          <mxGeometry relative="1" as="geometry" />
        </mxCell>
        <mxCell id="cTyTQ_kBBdIQPrJwLoZ1-20" value="3" style="ellipse;whiteSpace=wrap;html=1;aspect=fixed;fontFamily=Helvetica;fontSize=11;fillColor=#dae8fc;strokeColor=#6c8ebf;" vertex="1" parent="1">
          <mxGeometry x="990" y="770" width="30" height="30" as="geometry" />
        </mxCell>
        <mxCell id="cTyTQ_kBBdIQPrJwLoZ1-40" style="edgeStyle=orthogonalEdgeStyle;rounded=0;orthogonalLoop=1;jettySize=auto;html=1;exitX=1;exitY=0.5;exitDx=0;exitDy=0;entryX=0;entryY=0.5;entryDx=0;entryDy=0;" edge="1" parent="1" source="cTyTQ_kBBdIQPrJwLoZ1-21" target="cTyTQ_kBBdIQPrJwLoZ1-22">
          <mxGeometry relative="1" as="geometry" />
        </mxCell>
        <mxCell id="cTyTQ_kBBdIQPrJwLoZ1-21" value="14" style="ellipse;whiteSpace=wrap;html=1;aspect=fixed;fontFamily=Helvetica;fontSize=11;fillColor=#dae8fc;strokeColor=#6c8ebf;" vertex="1" parent="1">
          <mxGeometry x="1040" y="770" width="30" height="30" as="geometry" />
        </mxCell>
        <mxCell id="cTyTQ_kBBdIQPrJwLoZ1-22" value="19" style="ellipse;whiteSpace=wrap;html=1;aspect=fixed;fontFamily=Helvetica;fontSize=11;fillColor=#d5e8d4;strokeColor=#82b366;" vertex="1" parent="1">
          <mxGeometry x="1090" y="770" width="30" height="30" as="geometry" />
        </mxCell>
        <mxCell id="cTyTQ_kBBdIQPrJwLoZ1-41" style="edgeStyle=orthogonalEdgeStyle;rounded=0;orthogonalLoop=1;jettySize=auto;html=1;exitX=1;exitY=0.5;exitDx=0;exitDy=0;entryX=0;entryY=0.5;entryDx=0;entryDy=0;" edge="1" parent="1" source="cTyTQ_kBBdIQPrJwLoZ1-23" target="cTyTQ_kBBdIQPrJwLoZ1-24">
          <mxGeometry relative="1" as="geometry" />
        </mxCell>
        <mxCell id="cTyTQ_kBBdIQPrJwLoZ1-23" value="1" style="ellipse;whiteSpace=wrap;html=1;aspect=fixed;fontFamily=Helvetica;fontSize=11;fillColor=#dae8fc;strokeColor=#6c8ebf;" vertex="1" parent="1">
          <mxGeometry x="940" y="820" width="30" height="30" as="geometry" />
        </mxCell>
        <mxCell id="cTyTQ_kBBdIQPrJwLoZ1-42" style="edgeStyle=orthogonalEdgeStyle;rounded=0;orthogonalLoop=1;jettySize=auto;html=1;exitX=1;exitY=0.5;exitDx=0;exitDy=0;entryX=0;entryY=0.5;entryDx=0;entryDy=0;" edge="1" parent="1" source="cTyTQ_kBBdIQPrJwLoZ1-24" target="cTyTQ_kBBdIQPrJwLoZ1-25">
          <mxGeometry relative="1" as="geometry" />
        </mxCell>
        <mxCell id="cTyTQ_kBBdIQPrJwLoZ1-24" value="3" style="ellipse;whiteSpace=wrap;html=1;aspect=fixed;fontFamily=Helvetica;fontSize=11;fillColor=#dae8fc;strokeColor=#6c8ebf;" vertex="1" parent="1">
          <mxGeometry x="990" y="820" width="30" height="30" as="geometry" />
        </mxCell>
        <mxCell id="cTyTQ_kBBdIQPrJwLoZ1-43" style="edgeStyle=orthogonalEdgeStyle;rounded=0;orthogonalLoop=1;jettySize=auto;html=1;exitX=1;exitY=0.5;exitDx=0;exitDy=0;entryX=0;entryY=0.5;entryDx=0;entryDy=0;" edge="1" parent="1" source="cTyTQ_kBBdIQPrJwLoZ1-25" target="cTyTQ_kBBdIQPrJwLoZ1-26">
          <mxGeometry relative="1" as="geometry" />
        </mxCell>
        <mxCell id="cTyTQ_kBBdIQPrJwLoZ1-25" value="14" style="ellipse;whiteSpace=wrap;html=1;aspect=fixed;fontFamily=Helvetica;fontSize=11;fillColor=#dae8fc;strokeColor=#6c8ebf;" vertex="1" parent="1">
          <mxGeometry x="1040" y="820" width="30" height="30" as="geometry" />
        </mxCell>
        <mxCell id="cTyTQ_kBBdIQPrJwLoZ1-26" value="20" style="ellipse;whiteSpace=wrap;html=1;aspect=fixed;fontFamily=Helvetica;fontSize=11;fillColor=#d5e8d4;strokeColor=#82b366;" vertex="1" parent="1">
          <mxGeometry x="1090" y="820" width="30" height="30" as="geometry" />
        </mxCell>
      </root>
    </mxGraphModel>
  </diagram>
  <diagram id="-cC4DGJKK31NAnipSHpy" name="结构化">
    <mxGraphModel grid="0" page="1" gridSize="10" guides="1" tooltips="1" connect="1" arrows="1" fold="1" pageScale="1" pageWidth="827" pageHeight="1169" math="0" shadow="0">
      <root>
        <mxCell id="0" />
        <mxCell id="1" parent="0" />
        <mxCell id="tj66kUOzeYwVmsfTq1Hq-1" value="节点表" style="shape=table;startSize=30;container=1;collapsible=1;childLayout=tableLayout;fixedRows=1;rowLines=0;fontStyle=1;align=center;resizeLast=1;html=1;fontFamily=Helvetica;fontSize=11;fontColor=default;" parent="1" vertex="1">
          <mxGeometry x="990" y="250" width="180" height="235.75" as="geometry" />
        </mxCell>
        <mxCell id="tj66kUOzeYwVmsfTq1Hq-2" value="" style="shape=tableRow;horizontal=0;startSize=0;swimlaneHead=0;swimlaneBody=0;fillColor=none;collapsible=0;dropTarget=0;points=[[0,0.5],[1,0.5]];portConstraint=eastwest;top=0;left=0;right=0;bottom=1;fontFamily=Helvetica;fontSize=11;fontColor=default;" parent="tj66kUOzeYwVmsfTq1Hq-1" vertex="1">
          <mxGeometry y="30" width="180" height="30" as="geometry" />
        </mxCell>
        <mxCell id="tj66kUOzeYwVmsfTq1Hq-3" value="PK" style="shape=partialRectangle;connectable=0;fillColor=none;top=0;left=0;bottom=0;right=0;fontStyle=1;overflow=hidden;whiteSpace=wrap;html=1;fontFamily=Helvetica;fontSize=11;fontColor=default;" parent="tj66kUOzeYwVmsfTq1Hq-2" vertex="1">
          <mxGeometry width="30" height="30" as="geometry">
            <mxRectangle width="30" height="30" as="alternateBounds" />
          </mxGeometry>
        </mxCell>
        <mxCell id="tj66kUOzeYwVmsfTq1Hq-4" value="ID 自增" style="shape=partialRectangle;connectable=0;fillColor=none;top=0;left=0;bottom=0;right=0;align=left;spacingLeft=6;fontStyle=5;overflow=hidden;whiteSpace=wrap;html=1;fontFamily=Helvetica;fontSize=11;fontColor=default;" parent="tj66kUOzeYwVmsfTq1Hq-2" vertex="1">
          <mxGeometry x="30" width="150" height="30" as="geometry">
            <mxRectangle width="150" height="30" as="alternateBounds" />
          </mxGeometry>
        </mxCell>
        <mxCell id="tj66kUOzeYwVmsfTq1Hq-5" value="" style="shape=tableRow;horizontal=0;startSize=0;swimlaneHead=0;swimlaneBody=0;fillColor=none;collapsible=0;dropTarget=0;points=[[0,0.5],[1,0.5]];portConstraint=eastwest;top=0;left=0;right=0;bottom=0;fontFamily=Helvetica;fontSize=11;fontColor=default;" parent="tj66kUOzeYwVmsfTq1Hq-1" vertex="1">
          <mxGeometry y="60" width="180" height="30" as="geometry" />
        </mxCell>
        <mxCell id="tj66kUOzeYwVmsfTq1Hq-6" value="" style="shape=partialRectangle;connectable=0;fillColor=none;top=0;left=0;bottom=0;right=0;editable=1;overflow=hidden;whiteSpace=wrap;html=1;fontFamily=Helvetica;fontSize=11;fontColor=default;" parent="tj66kUOzeYwVmsfTq1Hq-5" vertex="1">
          <mxGeometry width="30" height="30" as="geometry">
            <mxRectangle width="30" height="30" as="alternateBounds" />
          </mxGeometry>
        </mxCell>
        <mxCell id="tj66kUOzeYwVmsfTq1Hq-7" value="Name 名称" style="shape=partialRectangle;connectable=0;fillColor=none;top=0;left=0;bottom=0;right=0;align=left;spacingLeft=6;overflow=hidden;whiteSpace=wrap;html=1;fontFamily=Helvetica;fontSize=11;fontColor=default;" parent="tj66kUOzeYwVmsfTq1Hq-5" vertex="1">
          <mxGeometry x="30" width="150" height="30" as="geometry">
            <mxRectangle width="150" height="30" as="alternateBounds" />
          </mxGeometry>
        </mxCell>
        <mxCell id="tj66kUOzeYwVmsfTq1Hq-8" value="" style="shape=tableRow;horizontal=0;startSize=0;swimlaneHead=0;swimlaneBody=0;fillColor=none;collapsible=0;dropTarget=0;points=[[0,0.5],[1,0.5]];portConstraint=eastwest;top=0;left=0;right=0;bottom=0;fontFamily=Helvetica;fontSize=11;fontColor=default;" parent="tj66kUOzeYwVmsfTq1Hq-1" vertex="1">
          <mxGeometry y="90" width="180" height="26" as="geometry" />
        </mxCell>
        <mxCell id="tj66kUOzeYwVmsfTq1Hq-9" value="FK1" style="shape=partialRectangle;connectable=0;fillColor=none;top=0;left=0;bottom=0;right=0;editable=1;overflow=hidden;whiteSpace=wrap;html=1;fontFamily=Helvetica;fontSize=11;fontColor=default;" parent="tj66kUOzeYwVmsfTq1Hq-8" vertex="1">
          <mxGeometry width="30" height="26" as="geometry">
            <mxRectangle width="30" height="26" as="alternateBounds" />
          </mxGeometry>
        </mxCell>
        <mxCell id="tj66kUOzeYwVmsfTq1Hq-10" value="ParentID 父节点ID" style="shape=partialRectangle;connectable=0;fillColor=none;top=0;left=0;bottom=0;right=0;align=left;spacingLeft=6;overflow=hidden;whiteSpace=wrap;html=1;fontFamily=Helvetica;fontSize=11;fontColor=default;" parent="tj66kUOzeYwVmsfTq1Hq-8" vertex="1">
          <mxGeometry x="30" width="150" height="26" as="geometry">
            <mxRectangle width="150" height="26" as="alternateBounds" />
          </mxGeometry>
        </mxCell>
        <mxCell id="tj66kUOzeYwVmsfTq1Hq-11" value="" style="shape=tableRow;horizontal=0;startSize=0;swimlaneHead=0;swimlaneBody=0;fillColor=none;collapsible=0;dropTarget=0;points=[[0,0.5],[1,0.5]];portConstraint=eastwest;top=0;left=0;right=0;bottom=0;fontFamily=Helvetica;fontSize=11;fontColor=default;" parent="tj66kUOzeYwVmsfTq1Hq-1" vertex="1">
          <mxGeometry y="116" width="180" height="30" as="geometry" />
        </mxCell>
        <mxCell id="tj66kUOzeYwVmsfTq1Hq-12" value="" style="shape=partialRectangle;connectable=0;fillColor=none;top=0;left=0;bottom=0;right=0;editable=1;overflow=hidden;whiteSpace=wrap;html=1;fontFamily=Helvetica;fontSize=11;fontColor=default;" parent="tj66kUOzeYwVmsfTq1Hq-11" vertex="1">
          <mxGeometry width="30" height="30" as="geometry">
            <mxRectangle width="30" height="30" as="alternateBounds" />
          </mxGeometry>
        </mxCell>
        <mxCell id="tj66kUOzeYwVmsfTq1Hq-13" value="Path 路径" style="shape=partialRectangle;connectable=0;fillColor=none;top=0;left=0;bottom=0;right=0;align=left;spacingLeft=6;overflow=hidden;whiteSpace=wrap;html=1;fontFamily=Helvetica;fontSize=11;fontColor=default;" parent="tj66kUOzeYwVmsfTq1Hq-11" vertex="1">
          <mxGeometry x="30" width="150" height="30" as="geometry">
            <mxRectangle width="150" height="30" as="alternateBounds" />
          </mxGeometry>
        </mxCell>
        <mxCell id="tj66kUOzeYwVmsfTq1Hq-16" value="" style="shape=tableRow;horizontal=0;startSize=0;swimlaneHead=0;swimlaneBody=0;fillColor=none;collapsible=0;dropTarget=0;points=[[0,0.5],[1,0.5]];portConstraint=eastwest;top=0;left=0;right=0;bottom=0;fontFamily=Helvetica;fontSize=11;fontColor=default;" parent="tj66kUOzeYwVmsfTq1Hq-1" vertex="1">
          <mxGeometry y="146" width="180" height="30" as="geometry" />
        </mxCell>
        <mxCell id="tj66kUOzeYwVmsfTq1Hq-17" value="" style="shape=partialRectangle;connectable=0;fillColor=none;top=0;left=0;bottom=0;right=0;editable=1;overflow=hidden;whiteSpace=wrap;html=1;fontFamily=Helvetica;fontSize=11;fontColor=default;" parent="tj66kUOzeYwVmsfTq1Hq-16" vertex="1">
          <mxGeometry width="30" height="30" as="geometry">
            <mxRectangle width="30" height="30" as="alternateBounds" />
          </mxGeometry>
        </mxCell>
        <mxCell id="tj66kUOzeYwVmsfTq1Hq-18" value="Type 类型" style="shape=partialRectangle;connectable=0;fillColor=none;top=0;left=0;bottom=0;right=0;align=left;spacingLeft=6;overflow=hidden;whiteSpace=wrap;html=1;fontFamily=Helvetica;fontSize=11;fontColor=default;" parent="tj66kUOzeYwVmsfTq1Hq-16" vertex="1">
          <mxGeometry x="30" width="150" height="30" as="geometry">
            <mxRectangle width="150" height="30" as="alternateBounds" />
          </mxGeometry>
        </mxCell>
        <mxCell id="tj66kUOzeYwVmsfTq1Hq-19" value="" style="shape=tableRow;horizontal=0;startSize=0;swimlaneHead=0;swimlaneBody=0;fillColor=none;collapsible=0;dropTarget=0;points=[[0,0.5],[1,0.5]];portConstraint=eastwest;top=0;left=0;right=0;bottom=0;fontFamily=Helvetica;fontSize=11;fontColor=default;" parent="tj66kUOzeYwVmsfTq1Hq-1" vertex="1">
          <mxGeometry y="176" width="180" height="30" as="geometry" />
        </mxCell>
        <mxCell id="tj66kUOzeYwVmsfTq1Hq-20" value="FK2" style="shape=partialRectangle;connectable=0;fillColor=none;top=0;left=0;bottom=0;right=0;editable=1;overflow=hidden;whiteSpace=wrap;html=1;fontFamily=Helvetica;fontSize=11;fontColor=default;" parent="tj66kUOzeYwVmsfTq1Hq-19" vertex="1">
          <mxGeometry width="30" height="30" as="geometry">
            <mxRectangle width="30" height="30" as="alternateBounds" />
          </mxGeometry>
        </mxCell>
        <mxCell id="tj66kUOzeYwVmsfTq1Hq-21" value="Manager 领导ID" style="shape=partialRectangle;connectable=0;fillColor=none;top=0;left=0;bottom=0;right=0;align=left;spacingLeft=6;overflow=hidden;whiteSpace=wrap;html=1;fontFamily=Helvetica;fontSize=11;fontColor=default;" parent="tj66kUOzeYwVmsfTq1Hq-19" vertex="1">
          <mxGeometry x="30" width="150" height="30" as="geometry">
            <mxRectangle width="150" height="30" as="alternateBounds" />
          </mxGeometry>
        </mxCell>
        <mxCell id="tj66kUOzeYwVmsfTq1Hq-41" value="" style="shape=tableRow;horizontal=0;startSize=0;swimlaneHead=0;swimlaneBody=0;fillColor=none;collapsible=0;dropTarget=0;points=[[0,0.5],[1,0.5]];portConstraint=eastwest;top=0;left=0;right=0;bottom=0;fontFamily=Helvetica;fontSize=11;fontColor=default;" parent="tj66kUOzeYwVmsfTq1Hq-1" vertex="1">
          <mxGeometry y="206" width="180" height="30" as="geometry" />
        </mxCell>
        <mxCell id="tj66kUOzeYwVmsfTq1Hq-42" value="" style="shape=partialRectangle;connectable=0;fillColor=none;top=0;left=0;bottom=0;right=0;editable=1;overflow=hidden;whiteSpace=wrap;html=1;fontFamily=Helvetica;fontSize=11;fontColor=default;" parent="tj66kUOzeYwVmsfTq1Hq-41" vertex="1">
          <mxGeometry width="30" height="30" as="geometry">
            <mxRectangle width="30" height="30" as="alternateBounds" />
          </mxGeometry>
        </mxCell>
        <mxCell id="tj66kUOzeYwVmsfTq1Hq-43" value="Desc 备注" style="shape=partialRectangle;connectable=0;fillColor=none;top=0;left=0;bottom=0;right=0;align=left;spacingLeft=6;overflow=hidden;whiteSpace=wrap;html=1;fontFamily=Helvetica;fontSize=11;fontColor=default;" parent="tj66kUOzeYwVmsfTq1Hq-41" vertex="1">
          <mxGeometry x="30" width="150" height="30" as="geometry">
            <mxRectangle width="150" height="30" as="alternateBounds" />
          </mxGeometry>
        </mxCell>
        <mxCell id="epwrsx-0dL0-ZqVSqXzC-1" value="&lt;p style=&quot;line-height: 100%; font-size: 12px;&quot;&gt;&lt;font face=&quot;Courier New&quot; style=&quot;font-size: 12px;&quot;&gt;{&lt;br&gt;&lt;/font&gt;&lt;font face=&quot;Courier New&quot; style=&quot;font-size: 12px;&quot;&gt;&amp;nbsp; &amp;nbsp; &quot;id&quot;: &quot;1&quot;,&lt;br&gt;&lt;/font&gt;&lt;font face=&quot;Courier New&quot; style=&quot;font-size: 12px;&quot;&gt;&amp;nbsp; &amp;nbsp; &quot;name&quot;: &quot;小溪流&quot;,&lt;br&gt;&lt;/font&gt;&lt;font face=&quot;Courier New&quot; style=&quot;font-size: 12px;&quot;&gt;&amp;nbsp; &amp;nbsp; &quot;parentId&quot;: null,&lt;br&gt;&lt;/font&gt;&lt;font face=&quot;Courier New&quot; style=&quot;font-size: 12px;&quot;&gt;&amp;nbsp; &amp;nbsp; &quot;path&quot;: &quot;1/&quot;,&lt;br&gt;&lt;/font&gt;&lt;font face=&quot;Courier New&quot; style=&quot;font-size: 12px;&quot;&gt;&amp;nbsp; &amp;nbsp; &quot;managerId&quot;: null,&lt;br&gt;&lt;/font&gt;&lt;font face=&quot;Courier New&quot; style=&quot;font-size: 12px;&quot;&gt;&amp;nbsp; &amp;nbsp; &quot;type&quot;: 0,&lt;br&gt;&lt;/font&gt;&lt;font face=&quot;Courier New&quot; style=&quot;font-size: 12px;&quot;&gt;&amp;nbsp; &amp;nbsp; &quot;children&quot;: [&lt;br&gt;&lt;/font&gt;&lt;font face=&quot;Courier New&quot; style=&quot;font-size: 12px;&quot;&gt;&amp;nbsp; &amp;nbsp; &amp;nbsp; &amp;nbsp; {&lt;br&gt;&lt;/font&gt;&lt;font face=&quot;Courier New&quot; style=&quot;font-size: 12px;&quot;&gt;&amp;nbsp; &amp;nbsp; &amp;nbsp; &amp;nbsp; &amp;nbsp; &amp;nbsp; &quot;id&quot;: &quot;2&quot;,&lt;br&gt;&lt;/font&gt;&lt;font face=&quot;Courier New&quot; style=&quot;font-size: 12px;&quot;&gt;&amp;nbsp; &amp;nbsp; &amp;nbsp; &amp;nbsp; &amp;nbsp; &amp;nbsp; &quot;name&quot;: &quot;总经办&quot;,&lt;br&gt;&lt;/font&gt;&lt;font face=&quot;Courier New&quot; style=&quot;font-size: 12px;&quot;&gt;&amp;nbsp; &amp;nbsp; &amp;nbsp; &amp;nbsp; &amp;nbsp; &amp;nbsp; &quot;parentId&quot;: &quot;1&quot;,&lt;br&gt;&lt;/font&gt;&lt;font face=&quot;Courier New&quot; style=&quot;font-size: 12px;&quot;&gt;&amp;nbsp; &amp;nbsp; &amp;nbsp; &amp;nbsp; &amp;nbsp; &amp;nbsp; &quot;path&quot;: &quot;1/2/&quot;,&lt;br&gt;&lt;/font&gt;&lt;font face=&quot;Courier New&quot; style=&quot;font-size: 12px;&quot;&gt;&amp;nbsp; &amp;nbsp; &amp;nbsp; &amp;nbsp; &amp;nbsp; &amp;nbsp; &quot;managerId&quot;: null,&lt;br&gt;&lt;/font&gt;&lt;font face=&quot;Courier New&quot; style=&quot;font-size: 12px;&quot;&gt;&amp;nbsp; &amp;nbsp; &amp;nbsp; &amp;nbsp; &amp;nbsp; &amp;nbsp; &quot;type&quot;: 0,&lt;br&gt;&lt;/font&gt;&lt;font face=&quot;Courier New&quot; style=&quot;font-size: 12px;&quot;&gt;&amp;nbsp; &amp;nbsp; &amp;nbsp; &amp;nbsp; &amp;nbsp; &amp;nbsp; &quot;children&quot;: [&lt;br&gt;&lt;/font&gt;&lt;font face=&quot;Courier New&quot; style=&quot;font-size: 12px;&quot;&gt;&amp;nbsp; &amp;nbsp; &amp;nbsp; &amp;nbsp; &amp;nbsp; &amp;nbsp; &amp;nbsp; &amp;nbsp; {&lt;br&gt;&lt;/font&gt;&lt;font face=&quot;Courier New&quot; style=&quot;font-size: 12px;&quot;&gt;&amp;nbsp; &amp;nbsp; &amp;nbsp; &amp;nbsp; &amp;nbsp; &amp;nbsp; &amp;nbsp; &amp;nbsp; &amp;nbsp; &amp;nbsp; &quot;id&quot;: &quot;10&quot;,&lt;br&gt;&lt;/font&gt;&lt;font face=&quot;Courier New&quot; style=&quot;font-size: 12px;&quot;&gt;&amp;nbsp; &amp;nbsp; &amp;nbsp; &amp;nbsp; &amp;nbsp; &amp;nbsp; &amp;nbsp; &amp;nbsp; &amp;nbsp; &amp;nbsp; &quot;name&quot;: &quot;Smart&quot;,&lt;br&gt;&lt;/font&gt;&lt;font face=&quot;Courier New&quot; style=&quot;font-size: 12px;&quot;&gt;&amp;nbsp; &amp;nbsp; &amp;nbsp; &amp;nbsp; &amp;nbsp; &amp;nbsp; &amp;nbsp; &amp;nbsp; &amp;nbsp; &amp;nbsp; &quot;parentId&quot;: &quot;2&quot;,&lt;br&gt;&lt;/font&gt;&lt;font face=&quot;Courier New&quot; style=&quot;font-size: 12px;&quot;&gt;&amp;nbsp; &amp;nbsp; &amp;nbsp; &amp;nbsp; &amp;nbsp; &amp;nbsp; &amp;nbsp; &amp;nbsp; &amp;nbsp; &amp;nbsp; &quot;path&quot;: &quot;1/2/10&quot;&lt;br&gt;&lt;/font&gt;&lt;font face=&quot;Courier New&quot; style=&quot;font-size: 12px;&quot;&gt;&amp;nbsp; &amp;nbsp; &amp;nbsp; &amp;nbsp; &amp;nbsp; &amp;nbsp; &amp;nbsp; &amp;nbsp; &amp;nbsp; &amp;nbsp; &quot;managerId&quot;: null,&lt;br&gt;&lt;/font&gt;&lt;font face=&quot;Courier New&quot; style=&quot;font-size: 12px;&quot;&gt;&amp;nbsp; &amp;nbsp; &amp;nbsp; &amp;nbsp; &amp;nbsp; &amp;nbsp; &amp;nbsp; &amp;nbsp; &amp;nbsp; &amp;nbsp; &quot;type&quot;: 1,&lt;br&gt;&lt;/font&gt;&lt;font face=&quot;Courier New&quot; style=&quot;font-size: 12px;&quot;&gt;&amp;nbsp; &amp;nbsp; &amp;nbsp; &amp;nbsp; &amp;nbsp; &amp;nbsp; &amp;nbsp; &amp;nbsp; &amp;nbsp; &amp;nbsp; &quot;children&quot;: []&lt;br&gt;&lt;/font&gt;&lt;font face=&quot;Courier New&quot; style=&quot;font-size: 12px;&quot;&gt;&amp;nbsp; &amp;nbsp; &amp;nbsp; &amp;nbsp; &amp;nbsp; &amp;nbsp; &amp;nbsp; &amp;nbsp; },&lt;br&gt;&lt;/font&gt;&lt;font face=&quot;Courier New&quot; style=&quot;font-size: 12px;&quot;&gt;&amp;nbsp; &amp;nbsp; &amp;nbsp; &amp;nbsp; &amp;nbsp; &amp;nbsp; &amp;nbsp; &amp;nbsp; {&lt;br&gt;&lt;/font&gt;&lt;font face=&quot;Courier New&quot; style=&quot;font-size: 12px;&quot;&gt;&amp;nbsp; &amp;nbsp; &amp;nbsp; &amp;nbsp; &amp;nbsp; &amp;nbsp; &amp;nbsp; &amp;nbsp; &amp;nbsp; &amp;nbsp; &quot;id&quot;: &quot;11&quot;,&lt;br&gt;&lt;/font&gt;&lt;font face=&quot;Courier New&quot; style=&quot;font-size: 12px;&quot;&gt;&amp;nbsp; &amp;nbsp; &amp;nbsp; &amp;nbsp; &amp;nbsp; &amp;nbsp; &amp;nbsp; &amp;nbsp; &amp;nbsp; &amp;nbsp; &quot;name&quot;: &quot;方驰&quot;,&lt;br&gt;&lt;/font&gt;&lt;font face=&quot;Courier New&quot; style=&quot;font-size: 12px;&quot;&gt;&amp;nbsp; &amp;nbsp; &amp;nbsp; &amp;nbsp; &amp;nbsp; &amp;nbsp; &amp;nbsp; &amp;nbsp; &amp;nbsp; &amp;nbsp; &quot;parentId&quot;: &quot;2&quot;,&lt;br&gt;&lt;/font&gt;&lt;font face=&quot;Courier New&quot; style=&quot;font-size: 12px;&quot;&gt;&amp;nbsp; &amp;nbsp; &amp;nbsp; &amp;nbsp; &amp;nbsp; &amp;nbsp; &amp;nbsp; &amp;nbsp; &amp;nbsp; &amp;nbsp; &quot;path&quot;: &quot;1/2/10&quot;&lt;br&gt;&lt;/font&gt;&lt;font face=&quot;Courier New&quot; style=&quot;font-size: 12px;&quot;&gt;&amp;nbsp; &amp;nbsp; &amp;nbsp; &amp;nbsp; &amp;nbsp; &amp;nbsp; &amp;nbsp; &amp;nbsp; &amp;nbsp; &amp;nbsp; &quot;managerId&quot;: null,&lt;br&gt;&lt;/font&gt;&lt;font face=&quot;Courier New&quot; style=&quot;font-size: 12px;&quot;&gt;&amp;nbsp; &amp;nbsp; &amp;nbsp; &amp;nbsp; &amp;nbsp; &amp;nbsp; &amp;nbsp; &amp;nbsp; &amp;nbsp; &amp;nbsp; &quot;type&quot;: 1,&lt;br&gt;&lt;/font&gt;&lt;font face=&quot;Courier New&quot; style=&quot;font-size: 12px;&quot;&gt;&amp;nbsp; &amp;nbsp; &amp;nbsp; &amp;nbsp; &amp;nbsp; &amp;nbsp; &amp;nbsp; &amp;nbsp; &amp;nbsp; &amp;nbsp; &quot;children&quot;: []&lt;br&gt;&lt;/font&gt;&lt;font face=&quot;Courier New&quot; style=&quot;font-size: 12px;&quot;&gt;&amp;nbsp; &amp;nbsp; &amp;nbsp; &amp;nbsp; &amp;nbsp; &amp;nbsp; &amp;nbsp; &amp;nbsp; }&lt;br&gt;&lt;/font&gt;&lt;font face=&quot;Courier New&quot; style=&quot;font-size: 12px;&quot;&gt;&amp;nbsp; &amp;nbsp; &amp;nbsp; &amp;nbsp; &amp;nbsp; &amp;nbsp; ]&lt;br&gt;&lt;/font&gt;&lt;font face=&quot;Courier New&quot; style=&quot;font-size: 12px;&quot;&gt;&amp;nbsp; &amp;nbsp; &amp;nbsp; &amp;nbsp; }，&lt;br&gt;&lt;/font&gt;&lt;font face=&quot;Courier New&quot; style=&quot;font-size: 12px;&quot;&gt;&amp;nbsp; &amp;nbsp; &amp;nbsp; &amp;nbsp; {&lt;br&gt;&lt;/font&gt;&lt;font face=&quot;Courier New&quot; style=&quot;font-size: 12px;&quot;&gt;&amp;nbsp; &amp;nbsp; &amp;nbsp; &amp;nbsp; &amp;nbsp; &amp;nbsp; &quot;id&quot;: &quot;3&quot;,&lt;br&gt;&lt;/font&gt;&lt;font face=&quot;Courier New&quot; style=&quot;font-size: 12px;&quot;&gt;&amp;nbsp; &amp;nbsp; &amp;nbsp; &amp;nbsp; &amp;nbsp; &amp;nbsp; &quot;name&quot;: &quot;研发中心&quot;,&lt;br&gt;&lt;/font&gt;&lt;font face=&quot;Courier New&quot; style=&quot;font-size: 12px;&quot;&gt;&amp;nbsp; &amp;nbsp; &amp;nbsp; &amp;nbsp; &amp;nbsp; &amp;nbsp; &quot;parentId&quot;: &quot;1&quot;,&lt;br&gt;&lt;/font&gt;&lt;font face=&quot;Courier New&quot; style=&quot;font-size: 12px;&quot;&gt;&amp;nbsp; &amp;nbsp; &amp;nbsp; &amp;nbsp; &amp;nbsp; &amp;nbsp; &quot;path&quot;: &quot;1/3/&quot;,&lt;br&gt;&lt;/font&gt;&lt;font face=&quot;Courier New&quot; style=&quot;font-size: 12px;&quot;&gt;&amp;nbsp; &amp;nbsp; &amp;nbsp; &amp;nbsp; &amp;nbsp; &amp;nbsp; &quot;managerId&quot;: &quot;16&quot;,&lt;br&gt;&lt;/font&gt;&lt;font face=&quot;Courier New&quot; style=&quot;font-size: 12px;&quot;&gt;&amp;nbsp; &amp;nbsp; &amp;nbsp; &amp;nbsp; &amp;nbsp; &amp;nbsp; &quot;type&quot;: 0,&lt;br&gt;&lt;/font&gt;&lt;font face=&quot;Courier New&quot; style=&quot;font-size: 12px;&quot;&gt;&amp;nbsp; &amp;nbsp; &amp;nbsp; &amp;nbsp; &amp;nbsp; &amp;nbsp; &quot;children&quot;: [&lt;br&gt;&lt;/font&gt;&lt;font face=&quot;Courier New&quot; style=&quot;font-size: 12px;&quot;&gt;&amp;nbsp; &amp;nbsp; &amp;nbsp; &amp;nbsp; &amp;nbsp; &amp;nbsp; &amp;nbsp; &amp;nbsp; {&lt;br&gt;&lt;/font&gt;&lt;font face=&quot;Courier New&quot; style=&quot;font-size: 12px;&quot;&gt;&amp;nbsp; &amp;nbsp; &amp;nbsp; &amp;nbsp; &amp;nbsp; &amp;nbsp; &amp;nbsp; &amp;nbsp; &amp;nbsp; &amp;nbsp; &quot;id&quot;: &quot;12&quot;,&lt;br&gt;&lt;/font&gt;&lt;font face=&quot;Courier New&quot; style=&quot;font-size: 12px;&quot;&gt;&amp;nbsp; &amp;nbsp; &amp;nbsp; &amp;nbsp; &amp;nbsp; &amp;nbsp; &amp;nbsp; &amp;nbsp; &amp;nbsp; &amp;nbsp; &quot;name&quot;: &quot;业务开发&quot;,&lt;br&gt;&lt;/font&gt;&lt;font face=&quot;Courier New&quot; style=&quot;font-size: 12px;&quot;&gt;&amp;nbsp; &amp;nbsp; &amp;nbsp; &amp;nbsp; &amp;nbsp; &amp;nbsp; &amp;nbsp; &amp;nbsp; &amp;nbsp; &amp;nbsp; &quot;parentId&quot;: &quot;3&quot;,&lt;br&gt;&lt;/font&gt;&lt;font face=&quot;Courier New&quot; style=&quot;font-size: 12px;&quot;&gt;&amp;nbsp; &amp;nbsp; &amp;nbsp; &amp;nbsp; &amp;nbsp; &amp;nbsp; &amp;nbsp; &amp;nbsp; &amp;nbsp; &amp;nbsp; &quot;path&quot;: &quot;1/2/12&quot;&lt;br&gt;&lt;/font&gt;&lt;font face=&quot;Courier New&quot; style=&quot;font-size: 12px;&quot;&gt;&amp;nbsp; &amp;nbsp; &amp;nbsp; &amp;nbsp; &amp;nbsp; &amp;nbsp; &amp;nbsp; &amp;nbsp; &amp;nbsp; &amp;nbsp; &quot;managerId&quot;: null,&lt;br&gt;&lt;/font&gt;&lt;font face=&quot;Courier New&quot; style=&quot;font-size: 12px;&quot;&gt;&amp;nbsp; &amp;nbsp; &amp;nbsp; &amp;nbsp; &amp;nbsp; &amp;nbsp; &amp;nbsp; &amp;nbsp; &amp;nbsp; &amp;nbsp; &quot;type&quot;: 0,&lt;br&gt;&lt;/font&gt;&lt;font face=&quot;Courier New&quot; style=&quot;font-size: 12px;&quot;&gt;&amp;nbsp; &amp;nbsp; &amp;nbsp; &amp;nbsp; &amp;nbsp; &amp;nbsp; &amp;nbsp; &amp;nbsp; &amp;nbsp; &amp;nbsp; &quot;children&quot;: []&lt;br&gt;&lt;/font&gt;&lt;font face=&quot;Courier New&quot; style=&quot;font-size: 12px;&quot;&gt;&amp;nbsp; &amp;nbsp; &amp;nbsp; &amp;nbsp; &amp;nbsp; &amp;nbsp; &amp;nbsp; &amp;nbsp; },&lt;br&gt;&lt;/font&gt;&lt;font face=&quot;Courier New&quot; style=&quot;font-size: 12px;&quot;&gt;&amp;nbsp; &amp;nbsp; &amp;nbsp; &amp;nbsp; &amp;nbsp; &amp;nbsp; &amp;nbsp; &amp;nbsp; {&lt;br&gt;&lt;/font&gt;&lt;font face=&quot;Courier New&quot; style=&quot;font-size: 12px;&quot;&gt;&amp;nbsp; &amp;nbsp; &amp;nbsp; &amp;nbsp; &amp;nbsp; &amp;nbsp; &amp;nbsp; &amp;nbsp; &amp;nbsp; &amp;nbsp; &quot;id&quot;: &quot;13&quot;,&lt;br&gt;&lt;/font&gt;&lt;font face=&quot;Courier New&quot; style=&quot;font-size: 12px;&quot;&gt;&amp;nbsp; &amp;nbsp; &amp;nbsp; &amp;nbsp; &amp;nbsp; &amp;nbsp; &amp;nbsp; &amp;nbsp; &amp;nbsp; &amp;nbsp; &quot;name&quot;: &quot;CDN&quot;,&lt;br&gt;&lt;/font&gt;&lt;font face=&quot;Courier New&quot; style=&quot;font-size: 12px;&quot;&gt;&amp;nbsp; &amp;nbsp; &amp;nbsp; &amp;nbsp; &amp;nbsp; &amp;nbsp; &amp;nbsp; &amp;nbsp; &amp;nbsp; &amp;nbsp; &quot;parentId&quot;: &quot;3&quot;,&lt;br&gt;&lt;/font&gt;&lt;font face=&quot;Courier New&quot; style=&quot;font-size: 12px;&quot;&gt;&amp;nbsp; &amp;nbsp; &amp;nbsp; &amp;nbsp; &amp;nbsp; &amp;nbsp; &amp;nbsp; &amp;nbsp; &amp;nbsp; &amp;nbsp; &quot;path&quot;: &quot;1/2/13&quot;&lt;br&gt;&lt;/font&gt;&lt;font face=&quot;Courier New&quot; style=&quot;font-size: 12px;&quot;&gt;&amp;nbsp; &amp;nbsp; &amp;nbsp; &amp;nbsp; &amp;nbsp; &amp;nbsp; &amp;nbsp; &amp;nbsp; &amp;nbsp; &amp;nbsp; &quot;managerId&quot;: null,&lt;br&gt;&lt;/font&gt;&lt;font face=&quot;Courier New&quot; style=&quot;font-size: 12px;&quot;&gt;&amp;nbsp; &amp;nbsp; &amp;nbsp; &amp;nbsp; &amp;nbsp; &amp;nbsp; &amp;nbsp; &amp;nbsp; &amp;nbsp; &amp;nbsp; &quot;type&quot;: 0,&lt;br&gt;&lt;/font&gt;&lt;font face=&quot;Courier New&quot; style=&quot;font-size: 12px;&quot;&gt;&amp;nbsp; &amp;nbsp; &amp;nbsp; &amp;nbsp; &amp;nbsp; &amp;nbsp; &amp;nbsp; &amp;nbsp; &amp;nbsp; &amp;nbsp; &quot;children&quot;: []&lt;br&gt;&lt;/font&gt;&lt;font face=&quot;Courier New&quot; style=&quot;font-size: 12px;&quot;&gt;&amp;nbsp; &amp;nbsp; &amp;nbsp; &amp;nbsp; &amp;nbsp; &amp;nbsp; &amp;nbsp; &amp;nbsp; },&lt;br&gt;&lt;/font&gt;&lt;font face=&quot;Courier New&quot; style=&quot;font-size: 12px;&quot;&gt;&amp;nbsp; &amp;nbsp; &amp;nbsp; &amp;nbsp; &amp;nbsp; &amp;nbsp; &amp;nbsp; &amp;nbsp; {&lt;br&gt;&lt;/font&gt;&lt;font face=&quot;Courier New&quot; style=&quot;font-size: 12px;&quot;&gt;&amp;nbsp; &amp;nbsp; &amp;nbsp; &amp;nbsp; &amp;nbsp; &amp;nbsp; &amp;nbsp; &amp;nbsp; &amp;nbsp; &amp;nbsp; &quot;id&quot;: &quot;14&quot;,&lt;br&gt;&lt;/font&gt;&lt;font face=&quot;Courier New&quot; style=&quot;font-size: 12px;&quot;&gt;&amp;nbsp; &amp;nbsp; &amp;nbsp; &amp;nbsp; &amp;nbsp; &amp;nbsp; &amp;nbsp; &amp;nbsp; &amp;nbsp; &amp;nbsp; &quot;name&quot;: &quot;创新&quot;,&lt;br&gt;&lt;/font&gt;&lt;font face=&quot;Courier New&quot; style=&quot;font-size: 12px;&quot;&gt;&amp;nbsp; &amp;nbsp; &amp;nbsp; &amp;nbsp; &amp;nbsp; &amp;nbsp; &amp;nbsp; &amp;nbsp; &amp;nbsp; &amp;nbsp; &quot;parentId&quot;: &quot;3&quot;,&lt;br&gt;&lt;/font&gt;&lt;font face=&quot;Courier New&quot; style=&quot;font-size: 12px;&quot;&gt;&amp;nbsp; &amp;nbsp; &amp;nbsp; &amp;nbsp; &amp;nbsp; &amp;nbsp; &amp;nbsp; &amp;nbsp; &amp;nbsp; &amp;nbsp; &quot;path&quot;: &quot;1/2/14&quot;&lt;br&gt;&lt;/font&gt;&lt;font face=&quot;Courier New&quot; style=&quot;font-size: 12px;&quot;&gt;&amp;nbsp; &amp;nbsp; &amp;nbsp; &amp;nbsp; &amp;nbsp; &amp;nbsp; &amp;nbsp; &amp;nbsp; &amp;nbsp; &amp;nbsp; &quot;managerId&quot;: &quot;20&quot;,&lt;br&gt;&lt;/font&gt;&lt;font face=&quot;Courier New&quot; style=&quot;font-size: 12px;&quot;&gt;&amp;nbsp; &amp;nbsp; &amp;nbsp; &amp;nbsp; &amp;nbsp; &amp;nbsp; &amp;nbsp; &amp;nbsp; &amp;nbsp; &amp;nbsp; &quot;type&quot;: 0,&lt;br&gt;&lt;/font&gt;&lt;font face=&quot;Courier New&quot; style=&quot;font-size: 12px;&quot;&gt;&amp;nbsp; &amp;nbsp; &amp;nbsp; &amp;nbsp; &amp;nbsp; &amp;nbsp; &amp;nbsp; &amp;nbsp; &amp;nbsp; &amp;nbsp; &quot;children&quot;: [&lt;br&gt;&lt;/font&gt;&lt;font face=&quot;Courier New&quot; style=&quot;font-size: 12px;&quot;&gt;&amp;nbsp; &amp;nbsp; &amp;nbsp; &amp;nbsp; &amp;nbsp; &amp;nbsp; &amp;nbsp; &amp;nbsp; &amp;nbsp; &amp;nbsp; &amp;nbsp; &amp;nbsp; {&lt;br&gt;&lt;/font&gt;&lt;font face=&quot;Courier New&quot; style=&quot;font-size: 12px;&quot;&gt;&amp;nbsp; &amp;nbsp; &amp;nbsp; &amp;nbsp; &amp;nbsp; &amp;nbsp; &amp;nbsp; &amp;nbsp; &amp;nbsp; &amp;nbsp; &amp;nbsp; &amp;nbsp; &amp;nbsp; &amp;nbsp; &quot;id&quot;: &quot;18&quot;,&lt;br&gt;&lt;/font&gt;&lt;font face=&quot;Courier New&quot; style=&quot;font-size: 12px;&quot;&gt;&amp;nbsp; &amp;nbsp; &amp;nbsp; &amp;nbsp; &amp;nbsp; &amp;nbsp; &amp;nbsp; &amp;nbsp; &amp;nbsp; &amp;nbsp; &amp;nbsp; &amp;nbsp; &amp;nbsp; &amp;nbsp; &quot;name&quot;: &quot;吴睿阳&quot;,&lt;br&gt;&lt;/font&gt;&lt;font face=&quot;Courier New&quot; style=&quot;font-size: 12px;&quot;&gt;&amp;nbsp; &amp;nbsp; &amp;nbsp; &amp;nbsp; &amp;nbsp; &amp;nbsp; &amp;nbsp; &amp;nbsp; &amp;nbsp; &amp;nbsp; &amp;nbsp; &amp;nbsp; &amp;nbsp; &amp;nbsp; &quot;parentId&quot;: &quot;14&quot;,&lt;br&gt;&lt;/font&gt;&lt;font face=&quot;Courier New&quot; style=&quot;font-size: 12px;&quot;&gt;&amp;nbsp; &amp;nbsp; &amp;nbsp; &amp;nbsp; &amp;nbsp; &amp;nbsp; &amp;nbsp; &amp;nbsp; &amp;nbsp; &amp;nbsp; &amp;nbsp; &amp;nbsp; &amp;nbsp; &amp;nbsp; &quot;path&quot;: &quot;1/2/14/18&quot;&lt;br&gt;&lt;/font&gt;&lt;font face=&quot;Courier New&quot; style=&quot;font-size: 12px;&quot;&gt;&amp;nbsp; &amp;nbsp; &amp;nbsp; &amp;nbsp; &amp;nbsp; &amp;nbsp; &amp;nbsp; &amp;nbsp; &amp;nbsp; &amp;nbsp; &amp;nbsp; &amp;nbsp; &amp;nbsp; &amp;nbsp; &quot;managerId&quot;: null,&lt;br&gt;&lt;/font&gt;&lt;font face=&quot;Courier New&quot; style=&quot;font-size: 12px;&quot;&gt;&amp;nbsp; &amp;nbsp; &amp;nbsp; &amp;nbsp; &amp;nbsp; &amp;nbsp; &amp;nbsp; &amp;nbsp; &amp;nbsp; &amp;nbsp; &amp;nbsp; &amp;nbsp; &amp;nbsp; &amp;nbsp; &quot;type&quot;: 1,&lt;br&gt;&lt;/font&gt;&lt;font face=&quot;Courier New&quot; style=&quot;font-size: 12px;&quot;&gt;&amp;nbsp; &amp;nbsp; &amp;nbsp; &amp;nbsp; &amp;nbsp; &amp;nbsp; &amp;nbsp; &amp;nbsp; &amp;nbsp; &amp;nbsp; &amp;nbsp; &amp;nbsp; &amp;nbsp; &amp;nbsp; &quot;children&quot;: []&lt;br&gt;&lt;/font&gt;&lt;font face=&quot;Courier New&quot; style=&quot;font-size: 12px;&quot;&gt;&amp;nbsp; &amp;nbsp; &amp;nbsp; &amp;nbsp; &amp;nbsp; &amp;nbsp; &amp;nbsp; &amp;nbsp; &amp;nbsp; &amp;nbsp; &amp;nbsp; &amp;nbsp; },&lt;br&gt;&lt;/font&gt;&lt;font face=&quot;Courier New&quot; style=&quot;font-size: 12px;&quot;&gt;&amp;nbsp; &amp;nbsp; &amp;nbsp; &amp;nbsp; &amp;nbsp; &amp;nbsp; &amp;nbsp; &amp;nbsp; &amp;nbsp; &amp;nbsp; &amp;nbsp; &amp;nbsp; {&lt;br&gt;&lt;/font&gt;&lt;font face=&quot;Courier New&quot; style=&quot;font-size: 12px;&quot;&gt;&amp;nbsp; &amp;nbsp; &amp;nbsp; &amp;nbsp; &amp;nbsp; &amp;nbsp; &amp;nbsp; &amp;nbsp; &amp;nbsp; &amp;nbsp; &amp;nbsp; &amp;nbsp; &amp;nbsp; &amp;nbsp; &quot;id&quot;: &quot;19&quot;,&lt;br&gt;&lt;/font&gt;&lt;font face=&quot;Courier New&quot; style=&quot;font-size: 12px;&quot;&gt;&amp;nbsp; &amp;nbsp; &amp;nbsp; &amp;nbsp; &amp;nbsp; &amp;nbsp; &amp;nbsp; &amp;nbsp; &amp;nbsp; &amp;nbsp; &amp;nbsp; &amp;nbsp; &amp;nbsp; &amp;nbsp; &quot;name&quot;: &quot;谢有胜&quot;,&lt;br&gt;&lt;/font&gt;&lt;font face=&quot;Courier New&quot; style=&quot;font-size: 12px;&quot;&gt;&amp;nbsp; &amp;nbsp; &amp;nbsp; &amp;nbsp; &amp;nbsp; &amp;nbsp; &amp;nbsp; &amp;nbsp; &amp;nbsp; &amp;nbsp; &amp;nbsp; &amp;nbsp; &amp;nbsp; &amp;nbsp; &quot;parentId&quot;: &quot;14&quot;,&lt;br&gt;&lt;/font&gt;&lt;font face=&quot;Courier New&quot; style=&quot;font-size: 12px;&quot;&gt;&amp;nbsp; &amp;nbsp; &amp;nbsp; &amp;nbsp; &amp;nbsp; &amp;nbsp; &amp;nbsp; &amp;nbsp; &amp;nbsp; &amp;nbsp; &amp;nbsp; &amp;nbsp; &amp;nbsp; &amp;nbsp; &quot;path&quot;: &quot;1/2/14/19&quot;&lt;br&gt;&lt;/font&gt;&lt;font face=&quot;Courier New&quot; style=&quot;font-size: 12px;&quot;&gt;&amp;nbsp; &amp;nbsp; &amp;nbsp; &amp;nbsp; &amp;nbsp; &amp;nbsp; &amp;nbsp; &amp;nbsp; &amp;nbsp; &amp;nbsp; &amp;nbsp; &amp;nbsp; &amp;nbsp; &amp;nbsp; &quot;managerId&quot;: null,&lt;br&gt;&lt;/font&gt;&lt;font face=&quot;Courier New&quot; style=&quot;font-size: 12px;&quot;&gt;&amp;nbsp; &amp;nbsp; &amp;nbsp; &amp;nbsp; &amp;nbsp; &amp;nbsp; &amp;nbsp; &amp;nbsp; &amp;nbsp; &amp;nbsp; &amp;nbsp; &amp;nbsp; &amp;nbsp; &amp;nbsp; &quot;type&quot;: 1,&lt;br&gt;&lt;/font&gt;&lt;font face=&quot;Courier New&quot; style=&quot;font-size: 12px;&quot;&gt;&amp;nbsp; &amp;nbsp; &amp;nbsp; &amp;nbsp; &amp;nbsp; &amp;nbsp; &amp;nbsp; &amp;nbsp; &amp;nbsp; &amp;nbsp; &amp;nbsp; &amp;nbsp; &amp;nbsp; &amp;nbsp; &quot;children&quot;: []&lt;br&gt;&lt;/font&gt;&lt;font face=&quot;Courier New&quot; style=&quot;font-size: 12px;&quot;&gt;&amp;nbsp; &amp;nbsp; &amp;nbsp; &amp;nbsp; &amp;nbsp; &amp;nbsp; &amp;nbsp; &amp;nbsp; &amp;nbsp; &amp;nbsp; &amp;nbsp; &amp;nbsp; },&lt;br&gt;&lt;/font&gt;&lt;font face=&quot;Courier New&quot; style=&quot;font-size: 12px;&quot;&gt;&amp;nbsp; &amp;nbsp; &amp;nbsp; &amp;nbsp; &amp;nbsp; &amp;nbsp; &amp;nbsp; &amp;nbsp; &amp;nbsp; &amp;nbsp; &amp;nbsp; &amp;nbsp; {&lt;br&gt;&lt;/font&gt;&lt;font face=&quot;Courier New&quot; style=&quot;font-size: 12px;&quot;&gt;&amp;nbsp; &amp;nbsp; &amp;nbsp; &amp;nbsp; &amp;nbsp; &amp;nbsp; &amp;nbsp; &amp;nbsp; &amp;nbsp; &amp;nbsp; &amp;nbsp; &amp;nbsp; &amp;nbsp; &amp;nbsp; &quot;id&quot;: &quot;20&quot;,&lt;br&gt;&lt;/font&gt;&lt;font face=&quot;Courier New&quot; style=&quot;font-size: 12px;&quot;&gt;&amp;nbsp; &amp;nbsp; &amp;nbsp; &amp;nbsp; &amp;nbsp; &amp;nbsp; &amp;nbsp; &amp;nbsp; &amp;nbsp; &amp;nbsp; &amp;nbsp; &amp;nbsp; &amp;nbsp; &amp;nbsp; &quot;name&quot;: &quot;汤平&quot;,&lt;br&gt;&lt;/font&gt;&lt;font face=&quot;Courier New&quot; style=&quot;font-size: 12px;&quot;&gt;&amp;nbsp; &amp;nbsp; &amp;nbsp; &amp;nbsp; &amp;nbsp; &amp;nbsp; &amp;nbsp; &amp;nbsp; &amp;nbsp; &amp;nbsp; &amp;nbsp; &amp;nbsp; &amp;nbsp; &amp;nbsp; &quot;parentId&quot;: &quot;14&quot;,&lt;br&gt;&lt;/font&gt;&lt;font face=&quot;Courier New&quot; style=&quot;font-size: 12px;&quot;&gt;&amp;nbsp; &amp;nbsp; &amp;nbsp; &amp;nbsp; &amp;nbsp; &amp;nbsp; &amp;nbsp; &amp;nbsp; &amp;nbsp; &amp;nbsp; &amp;nbsp; &amp;nbsp; &amp;nbsp; &amp;nbsp; &quot;path&quot;: &quot;1/2/14/20&quot;&lt;br&gt;&lt;/font&gt;&lt;font face=&quot;Courier New&quot; style=&quot;font-size: 12px;&quot;&gt;&amp;nbsp; &amp;nbsp; &amp;nbsp; &amp;nbsp; &amp;nbsp; &amp;nbsp; &amp;nbsp; &amp;nbsp; &amp;nbsp; &amp;nbsp; &amp;nbsp; &amp;nbsp; &amp;nbsp; &amp;nbsp; &quot;managerId&quot;: null,&lt;br&gt;&lt;/font&gt;&lt;font face=&quot;Courier New&quot; style=&quot;font-size: 12px;&quot;&gt;&amp;nbsp; &amp;nbsp; &amp;nbsp; &amp;nbsp; &amp;nbsp; &amp;nbsp; &amp;nbsp; &amp;nbsp; &amp;nbsp; &amp;nbsp; &amp;nbsp; &amp;nbsp; &amp;nbsp; &amp;nbsp; &quot;type&quot;: 1,&lt;br&gt;&lt;/font&gt;&lt;font face=&quot;Courier New&quot; style=&quot;font-size: 12px;&quot;&gt;&amp;nbsp; &amp;nbsp; &amp;nbsp; &amp;nbsp; &amp;nbsp; &amp;nbsp; &amp;nbsp; &amp;nbsp; &amp;nbsp; &amp;nbsp; &amp;nbsp; &amp;nbsp; &amp;nbsp; &amp;nbsp; &quot;children&quot;: []&lt;br&gt;&lt;/font&gt;&lt;font face=&quot;Courier New&quot; style=&quot;font-size: 12px;&quot;&gt;&amp;nbsp; &amp;nbsp; &amp;nbsp; &amp;nbsp; &amp;nbsp; &amp;nbsp; &amp;nbsp; &amp;nbsp; &amp;nbsp; &amp;nbsp; &amp;nbsp; &amp;nbsp; },&lt;br&gt;&lt;/font&gt;&lt;font face=&quot;Courier New&quot; style=&quot;font-size: 12px;&quot;&gt;&amp;nbsp; &amp;nbsp; &amp;nbsp; &amp;nbsp; &amp;nbsp; &amp;nbsp; &amp;nbsp; &amp;nbsp; &amp;nbsp; &amp;nbsp; &amp;nbsp; &amp;nbsp; {&lt;br&gt;&lt;/font&gt;&lt;font face=&quot;Courier New&quot; style=&quot;font-size: 12px;&quot;&gt;&amp;nbsp; &amp;nbsp; &amp;nbsp; &amp;nbsp; &amp;nbsp; &amp;nbsp; &amp;nbsp; &amp;nbsp; &amp;nbsp; &amp;nbsp; &amp;nbsp; &amp;nbsp; &amp;nbsp; &amp;nbsp; &quot;id&quot;: &quot;21&quot;,&lt;br&gt;&lt;/font&gt;&lt;font face=&quot;Courier New&quot; style=&quot;font-size: 12px;&quot;&gt;&amp;nbsp; &amp;nbsp; &amp;nbsp; &amp;nbsp; &amp;nbsp; &amp;nbsp; &amp;nbsp; &amp;nbsp; &amp;nbsp; &amp;nbsp; &amp;nbsp; &amp;nbsp; &amp;nbsp; &amp;nbsp; &quot;name&quot;: &quot;何刚&quot;,&lt;br&gt;&lt;/font&gt;&lt;font face=&quot;Courier New&quot; style=&quot;font-size: 12px;&quot;&gt;&amp;nbsp; &amp;nbsp; &amp;nbsp; &amp;nbsp; &amp;nbsp; &amp;nbsp; &amp;nbsp; &amp;nbsp; &amp;nbsp; &amp;nbsp; &amp;nbsp; &amp;nbsp; &amp;nbsp; &amp;nbsp; &quot;parentId&quot;: &quot;14&quot;,&lt;br&gt;&lt;/font&gt;&lt;font face=&quot;Courier New&quot; style=&quot;font-size: 12px;&quot;&gt;&amp;nbsp; &amp;nbsp; &amp;nbsp; &amp;nbsp; &amp;nbsp; &amp;nbsp; &amp;nbsp; &amp;nbsp; &amp;nbsp; &amp;nbsp; &amp;nbsp; &amp;nbsp; &amp;nbsp; &amp;nbsp; &quot;path&quot;: &quot;1/2/14/21&quot;&lt;br&gt;&lt;/font&gt;&lt;font face=&quot;Courier New&quot; style=&quot;font-size: 12px;&quot;&gt;&amp;nbsp; &amp;nbsp; &amp;nbsp; &amp;nbsp; &amp;nbsp; &amp;nbsp; &amp;nbsp; &amp;nbsp; &amp;nbsp; &amp;nbsp; &amp;nbsp; &amp;nbsp; &amp;nbsp; &amp;nbsp; &quot;managerId&quot;: null,&lt;br&gt;&lt;/font&gt;&lt;font face=&quot;Courier New&quot; style=&quot;font-size: 12px;&quot;&gt;&amp;nbsp; &amp;nbsp; &amp;nbsp; &amp;nbsp; &amp;nbsp; &amp;nbsp; &amp;nbsp; &amp;nbsp; &amp;nbsp; &amp;nbsp; &amp;nbsp; &amp;nbsp; &amp;nbsp; &amp;nbsp; &quot;type&quot;: 1,&lt;br&gt;&lt;/font&gt;&lt;font face=&quot;Courier New&quot; style=&quot;font-size: 12px;&quot;&gt;&amp;nbsp; &amp;nbsp; &amp;nbsp; &amp;nbsp; &amp;nbsp; &amp;nbsp; &amp;nbsp; &amp;nbsp; &amp;nbsp; &amp;nbsp; &amp;nbsp; &amp;nbsp; &amp;nbsp; &amp;nbsp; &quot;children&quot;: []&lt;br&gt;&lt;/font&gt;&lt;font face=&quot;Courier New&quot; style=&quot;font-size: 12px;&quot;&gt;&amp;nbsp; &amp;nbsp; &amp;nbsp; &amp;nbsp; &amp;nbsp; &amp;nbsp; &amp;nbsp; &amp;nbsp; &amp;nbsp; &amp;nbsp; &amp;nbsp; &amp;nbsp; },&lt;br&gt;&lt;/font&gt;&lt;font face=&quot;Courier New&quot; style=&quot;font-size: 12px;&quot;&gt;&amp;nbsp; &amp;nbsp; &amp;nbsp; &amp;nbsp; &amp;nbsp; &amp;nbsp; &amp;nbsp; &amp;nbsp; &amp;nbsp; &amp;nbsp; &amp;nbsp; &amp;nbsp; {&lt;br&gt;&lt;/font&gt;&lt;font face=&quot;Courier New&quot; style=&quot;font-size: 12px;&quot;&gt;&amp;nbsp; &amp;nbsp; &amp;nbsp; &amp;nbsp; &amp;nbsp; &amp;nbsp; &amp;nbsp; &amp;nbsp; &amp;nbsp; &amp;nbsp; &amp;nbsp; &amp;nbsp; &amp;nbsp; &amp;nbsp; &quot;id&quot;: &quot;22&quot;,&lt;br&gt;&lt;/font&gt;&lt;font face=&quot;Courier New&quot; style=&quot;font-size: 12px;&quot;&gt;&amp;nbsp; &amp;nbsp; &amp;nbsp; &amp;nbsp; &amp;nbsp; &amp;nbsp; &amp;nbsp; &amp;nbsp; &amp;nbsp; &amp;nbsp; &amp;nbsp; &amp;nbsp; &amp;nbsp; &amp;nbsp; &quot;name&quot;: &quot;龚可&quot;,&lt;br&gt;&lt;/font&gt;&lt;font face=&quot;Courier New&quot; style=&quot;font-size: 12px;&quot;&gt;&amp;nbsp; &amp;nbsp; &amp;nbsp; &amp;nbsp; &amp;nbsp; &amp;nbsp; &amp;nbsp; &amp;nbsp; &amp;nbsp; &amp;nbsp; &amp;nbsp; &amp;nbsp; &amp;nbsp; &amp;nbsp; &quot;parentId&quot;: &quot;14&quot;,&lt;br&gt;&lt;/font&gt;&lt;font face=&quot;Courier New&quot; style=&quot;font-size: 12px;&quot;&gt;&amp;nbsp; &amp;nbsp; &amp;nbsp; &amp;nbsp; &amp;nbsp; &amp;nbsp; &amp;nbsp; &amp;nbsp; &amp;nbsp; &amp;nbsp; &amp;nbsp; &amp;nbsp; &amp;nbsp; &amp;nbsp; &quot;path&quot;: &quot;1/2/14/22&quot;&lt;br&gt;&lt;/font&gt;&lt;font face=&quot;Courier New&quot; style=&quot;font-size: 12px;&quot;&gt;&amp;nbsp; &amp;nbsp; &amp;nbsp; &amp;nbsp; &amp;nbsp; &amp;nbsp; &amp;nbsp; &amp;nbsp; &amp;nbsp; &amp;nbsp; &amp;nbsp; &amp;nbsp; &amp;nbsp; &amp;nbsp; &quot;managerId&quot;: null,&lt;br&gt;&lt;/font&gt;&lt;font face=&quot;Courier New&quot; style=&quot;font-size: 12px;&quot;&gt;&amp;nbsp; &amp;nbsp; &amp;nbsp; &amp;nbsp; &amp;nbsp; &amp;nbsp; &amp;nbsp; &amp;nbsp; &amp;nbsp; &amp;nbsp; &amp;nbsp; &amp;nbsp; &amp;nbsp; &amp;nbsp; &quot;type&quot;: 1,&lt;br&gt;&lt;/font&gt;&lt;font face=&quot;Courier New&quot; style=&quot;font-size: 12px;&quot;&gt;&amp;nbsp; &amp;nbsp; &amp;nbsp; &amp;nbsp; &amp;nbsp; &amp;nbsp; &amp;nbsp; &amp;nbsp; &amp;nbsp; &amp;nbsp; &amp;nbsp; &amp;nbsp; &amp;nbsp; &amp;nbsp; &quot;children&quot;: []&lt;br&gt;&lt;/font&gt;&lt;font face=&quot;Courier New&quot; style=&quot;font-size: 12px;&quot;&gt;&amp;nbsp; &amp;nbsp; &amp;nbsp; &amp;nbsp; &amp;nbsp; &amp;nbsp; &amp;nbsp; &amp;nbsp; &amp;nbsp; &amp;nbsp; &amp;nbsp; &amp;nbsp; }&lt;br&gt;&lt;/font&gt;&lt;font face=&quot;Courier New&quot; style=&quot;font-size: 12px;&quot;&gt;&amp;nbsp; &amp;nbsp; &amp;nbsp; &amp;nbsp; &amp;nbsp; &amp;nbsp; &amp;nbsp; &amp;nbsp; &amp;nbsp; &amp;nbsp; ]&lt;br&gt;&lt;/font&gt;&lt;font face=&quot;Courier New&quot; style=&quot;font-size: 12px;&quot;&gt;&amp;nbsp; &amp;nbsp; &amp;nbsp; &amp;nbsp; &amp;nbsp; &amp;nbsp; &amp;nbsp; &amp;nbsp; }&lt;br&gt;&lt;/font&gt;&lt;font face=&quot;Courier New&quot; style=&quot;font-size: 12px;&quot;&gt;&amp;nbsp; &amp;nbsp; &amp;nbsp; &amp;nbsp; &amp;nbsp; &amp;nbsp; ]&lt;br&gt;&lt;/font&gt;&lt;font face=&quot;Courier New&quot; style=&quot;font-size: 12px;&quot;&gt;&amp;nbsp; &amp;nbsp; &amp;nbsp; &amp;nbsp; }&lt;br&gt;&lt;/font&gt;&lt;font face=&quot;Courier New&quot; style=&quot;font-size: 12px;&quot;&gt;&amp;nbsp; &amp;nbsp; ]&lt;br&gt;&lt;/font&gt;&lt;font face=&quot;Courier New&quot; style=&quot;font-size: 12px;&quot;&gt;}&lt;/font&gt;&lt;/p&gt;" style="text;strokeColor=default;align=left;fillColor=none;html=1;verticalAlign=middle;whiteSpace=wrap;rounded=0;strokeWidth=2;" parent="1" vertex="1">
          <mxGeometry x="1280" y="-1090" width="520" height="1710" as="geometry" />
        </mxCell>
        <mxCell id="epwrsx-0dL0-ZqVSqXzC-3" value="select * from org_node where path like &quot;1/3/%&quot;；" style="text;strokeColor=none;align=left;fillColor=none;html=1;verticalAlign=middle;whiteSpace=wrap;rounded=0;" parent="1" vertex="1">
          <mxGeometry x="871" y="520" width="340" height="65" as="geometry" />
        </mxCell>
        <mxCell id="epwrsx-0dL0-ZqVSqXzC-4" value="Department" style="shape=table;startSize=30;container=1;collapsible=1;childLayout=tableLayout;fixedRows=1;rowLines=0;fontStyle=1;align=center;resizeLast=1;html=1;" parent="1" vertex="1">
          <mxGeometry x="961" y="796" width="180" height="150" as="geometry" />
        </mxCell>
        <mxCell id="epwrsx-0dL0-ZqVSqXzC-5" value="" style="shape=tableRow;horizontal=0;startSize=0;swimlaneHead=0;swimlaneBody=0;fillColor=none;collapsible=0;dropTarget=0;points=[[0,0.5],[1,0.5]];portConstraint=eastwest;top=0;left=0;right=0;bottom=1;" parent="epwrsx-0dL0-ZqVSqXzC-4" vertex="1">
          <mxGeometry y="30" width="180" height="30" as="geometry" />
        </mxCell>
        <mxCell id="epwrsx-0dL0-ZqVSqXzC-6" value="PK" style="shape=partialRectangle;connectable=0;fillColor=none;top=0;left=0;bottom=0;right=0;fontStyle=1;overflow=hidden;whiteSpace=wrap;html=1;" parent="epwrsx-0dL0-ZqVSqXzC-5" vertex="1">
          <mxGeometry width="30" height="30" as="geometry">
            <mxRectangle width="30" height="30" as="alternateBounds" />
          </mxGeometry>
        </mxCell>
        <mxCell id="epwrsx-0dL0-ZqVSqXzC-7" value="ID 自增" style="shape=partialRectangle;connectable=0;fillColor=none;top=0;left=0;bottom=0;right=0;align=left;spacingLeft=6;fontStyle=5;overflow=hidden;whiteSpace=wrap;html=1;" parent="epwrsx-0dL0-ZqVSqXzC-5" vertex="1">
          <mxGeometry x="30" width="150" height="30" as="geometry">
            <mxRectangle width="150" height="30" as="alternateBounds" />
          </mxGeometry>
        </mxCell>
        <mxCell id="epwrsx-0dL0-ZqVSqXzC-8" value="" style="shape=tableRow;horizontal=0;startSize=0;swimlaneHead=0;swimlaneBody=0;fillColor=none;collapsible=0;dropTarget=0;points=[[0,0.5],[1,0.5]];portConstraint=eastwest;top=0;left=0;right=0;bottom=0;" parent="epwrsx-0dL0-ZqVSqXzC-4" vertex="1">
          <mxGeometry y="60" width="180" height="30" as="geometry" />
        </mxCell>
        <mxCell id="epwrsx-0dL0-ZqVSqXzC-9" value="" style="shape=partialRectangle;connectable=0;fillColor=none;top=0;left=0;bottom=0;right=0;editable=1;overflow=hidden;whiteSpace=wrap;html=1;" parent="epwrsx-0dL0-ZqVSqXzC-8" vertex="1">
          <mxGeometry width="30" height="30" as="geometry">
            <mxRectangle width="30" height="30" as="alternateBounds" />
          </mxGeometry>
        </mxCell>
        <mxCell id="epwrsx-0dL0-ZqVSqXzC-10" value="Name 名称" style="shape=partialRectangle;connectable=0;fillColor=none;top=0;left=0;bottom=0;right=0;align=left;spacingLeft=6;overflow=hidden;whiteSpace=wrap;html=1;" parent="epwrsx-0dL0-ZqVSqXzC-8" vertex="1">
          <mxGeometry x="30" width="150" height="30" as="geometry">
            <mxRectangle width="150" height="30" as="alternateBounds" />
          </mxGeometry>
        </mxCell>
        <mxCell id="epwrsx-0dL0-ZqVSqXzC-11" value="" style="shape=tableRow;horizontal=0;startSize=0;swimlaneHead=0;swimlaneBody=0;fillColor=none;collapsible=0;dropTarget=0;points=[[0,0.5],[1,0.5]];portConstraint=eastwest;top=0;left=0;right=0;bottom=0;" parent="epwrsx-0dL0-ZqVSqXzC-4" vertex="1">
          <mxGeometry y="90" width="180" height="30" as="geometry" />
        </mxCell>
        <mxCell id="epwrsx-0dL0-ZqVSqXzC-12" value="" style="shape=partialRectangle;connectable=0;fillColor=none;top=0;left=0;bottom=0;right=0;editable=1;overflow=hidden;whiteSpace=wrap;html=1;" parent="epwrsx-0dL0-ZqVSqXzC-11" vertex="1">
          <mxGeometry width="30" height="30" as="geometry">
            <mxRectangle width="30" height="30" as="alternateBounds" />
          </mxGeometry>
        </mxCell>
        <mxCell id="epwrsx-0dL0-ZqVSqXzC-13" value="ParentID 上级部门ID" style="shape=partialRectangle;connectable=0;fillColor=none;top=0;left=0;bottom=0;right=0;align=left;spacingLeft=6;overflow=hidden;whiteSpace=wrap;html=1;" parent="epwrsx-0dL0-ZqVSqXzC-11" vertex="1">
          <mxGeometry x="30" width="150" height="30" as="geometry">
            <mxRectangle width="150" height="30" as="alternateBounds" />
          </mxGeometry>
        </mxCell>
        <mxCell id="epwrsx-0dL0-ZqVSqXzC-14" value="" style="shape=tableRow;horizontal=0;startSize=0;swimlaneHead=0;swimlaneBody=0;fillColor=none;collapsible=0;dropTarget=0;points=[[0,0.5],[1,0.5]];portConstraint=eastwest;top=0;left=0;right=0;bottom=0;" parent="epwrsx-0dL0-ZqVSqXzC-4" vertex="1">
          <mxGeometry y="120" width="180" height="30" as="geometry" />
        </mxCell>
        <mxCell id="epwrsx-0dL0-ZqVSqXzC-15" value="" style="shape=partialRectangle;connectable=0;fillColor=none;top=0;left=0;bottom=0;right=0;editable=1;overflow=hidden;whiteSpace=wrap;html=1;" parent="epwrsx-0dL0-ZqVSqXzC-14" vertex="1">
          <mxGeometry width="30" height="30" as="geometry">
            <mxRectangle width="30" height="30" as="alternateBounds" />
          </mxGeometry>
        </mxCell>
        <mxCell id="epwrsx-0dL0-ZqVSqXzC-16" value="Desc 备注" style="shape=partialRectangle;connectable=0;fillColor=none;top=0;left=0;bottom=0;right=0;align=left;spacingLeft=6;overflow=hidden;whiteSpace=wrap;html=1;" parent="epwrsx-0dL0-ZqVSqXzC-14" vertex="1">
          <mxGeometry x="30" width="150" height="30" as="geometry">
            <mxRectangle width="150" height="30" as="alternateBounds" />
          </mxGeometry>
        </mxCell>
        <mxCell id="epwrsx-0dL0-ZqVSqXzC-17" value="Employee" style="shape=table;startSize=30;container=1;collapsible=1;childLayout=tableLayout;fixedRows=1;rowLines=0;fontStyle=1;align=center;resizeLast=1;html=1;" parent="1" vertex="1">
          <mxGeometry x="1280" y="796" width="180" height="150" as="geometry" />
        </mxCell>
        <mxCell id="epwrsx-0dL0-ZqVSqXzC-18" value="" style="shape=tableRow;horizontal=0;startSize=0;swimlaneHead=0;swimlaneBody=0;fillColor=none;collapsible=0;dropTarget=0;points=[[0,0.5],[1,0.5]];portConstraint=eastwest;top=0;left=0;right=0;bottom=1;" parent="epwrsx-0dL0-ZqVSqXzC-17" vertex="1">
          <mxGeometry y="30" width="180" height="30" as="geometry" />
        </mxCell>
        <mxCell id="epwrsx-0dL0-ZqVSqXzC-19" value="PK" style="shape=partialRectangle;connectable=0;fillColor=none;top=0;left=0;bottom=0;right=0;fontStyle=1;overflow=hidden;whiteSpace=wrap;html=1;" parent="epwrsx-0dL0-ZqVSqXzC-18" vertex="1">
          <mxGeometry width="30" height="30" as="geometry">
            <mxRectangle width="30" height="30" as="alternateBounds" />
          </mxGeometry>
        </mxCell>
        <mxCell id="epwrsx-0dL0-ZqVSqXzC-20" value="ID 自增" style="shape=partialRectangle;connectable=0;fillColor=none;top=0;left=0;bottom=0;right=0;align=left;spacingLeft=6;fontStyle=5;overflow=hidden;whiteSpace=wrap;html=1;" parent="epwrsx-0dL0-ZqVSqXzC-18" vertex="1">
          <mxGeometry x="30" width="150" height="30" as="geometry">
            <mxRectangle width="150" height="30" as="alternateBounds" />
          </mxGeometry>
        </mxCell>
        <mxCell id="epwrsx-0dL0-ZqVSqXzC-21" value="" style="shape=tableRow;horizontal=0;startSize=0;swimlaneHead=0;swimlaneBody=0;fillColor=none;collapsible=0;dropTarget=0;points=[[0,0.5],[1,0.5]];portConstraint=eastwest;top=0;left=0;right=0;bottom=0;" parent="epwrsx-0dL0-ZqVSqXzC-17" vertex="1">
          <mxGeometry y="60" width="180" height="30" as="geometry" />
        </mxCell>
        <mxCell id="epwrsx-0dL0-ZqVSqXzC-22" value="" style="shape=partialRectangle;connectable=0;fillColor=none;top=0;left=0;bottom=0;right=0;editable=1;overflow=hidden;whiteSpace=wrap;html=1;" parent="epwrsx-0dL0-ZqVSqXzC-21" vertex="1">
          <mxGeometry width="30" height="30" as="geometry">
            <mxRectangle width="30" height="30" as="alternateBounds" />
          </mxGeometry>
        </mxCell>
        <mxCell id="epwrsx-0dL0-ZqVSqXzC-23" value="Name 姓名" style="shape=partialRectangle;connectable=0;fillColor=none;top=0;left=0;bottom=0;right=0;align=left;spacingLeft=6;overflow=hidden;whiteSpace=wrap;html=1;" parent="epwrsx-0dL0-ZqVSqXzC-21" vertex="1">
          <mxGeometry x="30" width="150" height="30" as="geometry">
            <mxRectangle width="150" height="30" as="alternateBounds" />
          </mxGeometry>
        </mxCell>
        <mxCell id="epwrsx-0dL0-ZqVSqXzC-24" value="" style="shape=tableRow;horizontal=0;startSize=0;swimlaneHead=0;swimlaneBody=0;fillColor=none;collapsible=0;dropTarget=0;points=[[0,0.5],[1,0.5]];portConstraint=eastwest;top=0;left=0;right=0;bottom=0;" parent="epwrsx-0dL0-ZqVSqXzC-17" vertex="1">
          <mxGeometry y="90" width="180" height="30" as="geometry" />
        </mxCell>
        <mxCell id="epwrsx-0dL0-ZqVSqXzC-25" value="" style="shape=partialRectangle;connectable=0;fillColor=none;top=0;left=0;bottom=0;right=0;editable=1;overflow=hidden;whiteSpace=wrap;html=1;" parent="epwrsx-0dL0-ZqVSqXzC-24" vertex="1">
          <mxGeometry width="30" height="30" as="geometry">
            <mxRectangle width="30" height="30" as="alternateBounds" />
          </mxGeometry>
        </mxCell>
        <mxCell id="epwrsx-0dL0-ZqVSqXzC-26" value="DepartmentID 部门ID" style="shape=partialRectangle;connectable=0;fillColor=none;top=0;left=0;bottom=0;right=0;align=left;spacingLeft=6;overflow=hidden;whiteSpace=wrap;html=1;" parent="epwrsx-0dL0-ZqVSqXzC-24" vertex="1">
          <mxGeometry x="30" width="150" height="30" as="geometry">
            <mxRectangle width="150" height="30" as="alternateBounds" />
          </mxGeometry>
        </mxCell>
        <mxCell id="epwrsx-0dL0-ZqVSqXzC-27" value="" style="shape=tableRow;horizontal=0;startSize=0;swimlaneHead=0;swimlaneBody=0;fillColor=none;collapsible=0;dropTarget=0;points=[[0,0.5],[1,0.5]];portConstraint=eastwest;top=0;left=0;right=0;bottom=0;" parent="epwrsx-0dL0-ZqVSqXzC-17" vertex="1">
          <mxGeometry y="120" width="180" height="30" as="geometry" />
        </mxCell>
        <mxCell id="epwrsx-0dL0-ZqVSqXzC-28" value="" style="shape=partialRectangle;connectable=0;fillColor=none;top=0;left=0;bottom=0;right=0;editable=1;overflow=hidden;whiteSpace=wrap;html=1;" parent="epwrsx-0dL0-ZqVSqXzC-27" vertex="1">
          <mxGeometry width="30" height="30" as="geometry">
            <mxRectangle width="30" height="30" as="alternateBounds" />
          </mxGeometry>
        </mxCell>
        <mxCell id="epwrsx-0dL0-ZqVSqXzC-29" value="Desc 备注" style="shape=partialRectangle;connectable=0;fillColor=none;top=0;left=0;bottom=0;right=0;align=left;spacingLeft=6;overflow=hidden;whiteSpace=wrap;html=1;" parent="epwrsx-0dL0-ZqVSqXzC-27" vertex="1">
          <mxGeometry x="30" width="150" height="30" as="geometry">
            <mxRectangle width="150" height="30" as="alternateBounds" />
          </mxGeometry>
        </mxCell>
        <mxCell id="epwrsx-0dL0-ZqVSqXzC-30" value="&lt;div&gt;result,tmp = [], []&lt;/div&gt;&lt;div&gt;&lt;span style=&quot;font-size: 12px;&quot;&gt;tmp &amp;lt; SELECT id FROM department WHERE parent_id = ?;&lt;/span&gt;&lt;/div&gt;&lt;div&gt;&lt;span style=&quot;font-size: 12px;&quot;&gt;&lt;br&gt;&lt;/span&gt;&lt;/div&gt;&lt;div&gt;&lt;span style=&quot;font-size: 12px;&quot;&gt;result.Add(tmp)&lt;/span&gt;&lt;/div&gt;&lt;div&gt;&lt;span style=&quot;font-size: 12px;&quot;&gt;&lt;br&gt;&lt;/span&gt;&lt;/div&gt;&lt;div&gt;&lt;span style=&quot;font-size: 12px;&quot;&gt;tmp_res = []&lt;/span&gt;&lt;/div&gt;&lt;div&gt;&lt;span style=&quot;font-size: 12px;&quot;&gt;do&amp;nbsp;&lt;/span&gt;&lt;/div&gt;&lt;div&gt;&lt;span style=&quot;font-size: 12px;&quot;&gt;tmp_res &amp;lt; SELECT id FROM department WHERE parent_id in $tmp;&lt;/span&gt;&lt;/div&gt;&lt;div&gt;&lt;span style=&quot;font-size: 12px;&quot;&gt;result.Add(tmp_res)&lt;/span&gt;&lt;/div&gt;&lt;div&gt;&lt;span style=&quot;font-size: 12px;&quot;&gt;while(len(tmp_res));&lt;/span&gt;&lt;/div&gt;" style="text;strokeColor=default;align=left;fillColor=none;html=1;verticalAlign=middle;whiteSpace=wrap;rounded=0;strokeWidth=2;" parent="1" vertex="1">
          <mxGeometry x="961" y="1006" width="419" height="183" as="geometry" />
        </mxCell>
        <mxCell id="epwrsx-0dL0-ZqVSqXzC-31" value="&lt;div&gt;WITH RECURSIVE r_t AS(&lt;/div&gt;&lt;div&gt;&lt;span style=&quot;font-size: 12px;&quot;&gt;&amp;nbsp; &amp;nbsp; SELECT `id`&lt;/span&gt;&lt;/div&gt;&lt;div&gt;&lt;span style=&quot;font-size: 12px;&quot;&gt;&amp;nbsp; &amp;nbsp; FROM `department`&lt;/span&gt;&lt;/div&gt;&lt;div&gt;&lt;span style=&quot;font-size: 12px;&quot;&gt;&amp;nbsp; &amp;nbsp; WHERE `parent_id` = 20&lt;/span&gt;&lt;/div&gt;&lt;div&gt;&lt;span style=&quot;font-size: 12px;&quot;&gt;&amp;nbsp; &amp;nbsp; UNION ALL&lt;/span&gt;&lt;/div&gt;&lt;div&gt;&lt;span style=&quot;font-size: 12px;&quot;&gt;&amp;nbsp; &amp;nbsp; SELECT `child`.`id`,&amp;nbsp;&lt;/span&gt;&lt;/div&gt;&lt;div&gt;&lt;span style=&quot;font-size: 12px;&quot;&gt;&amp;nbsp; &amp;nbsp; FROM `department` `child`&lt;/span&gt;&lt;/div&gt;&lt;div&gt;&lt;span style=&quot;font-size: 12px;&quot;&gt;&amp;nbsp; &amp;nbsp; JOIN `r_t` as `parent` ON `child`.`parent_id` = `parent`.`id`&lt;/span&gt;&lt;/div&gt;&lt;div&gt;&lt;span style=&quot;font-size: 12px;&quot;&gt;)&lt;/span&gt;&lt;/div&gt;&lt;div&gt;&lt;span style=&quot;font-size: 12px;&quot;&gt;SELECT * FROM r_t;&lt;/span&gt;&lt;/div&gt;" style="text;whiteSpace=wrap;html=1;strokeColor=default;strokeWidth=2;" parent="1" vertex="1">
          <mxGeometry x="959" y="1246" width="420" height="182" as="geometry" />
        </mxCell>
      </root>
    </mxGraphModel>
  </diagram>
</mxfile>
